<svg width="40" height="40" viewBox="0 0 40 40" fill="none" xmlns="http://www.w3.org/2000/svg">
<path d="M25.3887 0V0.351562C25.7813 0.534694 26.1429 0.786406 26.4551 1.09863L35 9.64258V36.249C35 38.3199 33.3209 39.9988 31.25 39.999H8.75C6.67896 39.999 5 38.3201 5 36.249V3.75C5 1.67896 6.67896 0 8.75 0H25.3887Z" fill="#F9C37B"/>
<path d="M25.3882 -4.79914e-10L30.2095 4.82116L35.0309 9.64272H26.5042C25.8879 9.64272 25.3882 9.14305 25.3882 8.52666L25.3882 -4.79914e-10Z" fill="#FC9717"/>
<path d="M10.446 18.2129H28.3029" stroke="white" stroke-width="1.67408" stroke-linecap="round"/>
<path d="M10.446 23.7935H28.3029" stroke="white" stroke-width="1.67408" stroke-linecap="round"/>
<path d="M10.446 29.3735H28.3029" stroke="white" stroke-width="1.67408" stroke-linecap="round"/>
</svg>
