<svg width="40" height="40" viewBox="0 0 40 40" fill="none" xmlns="http://www.w3.org/2000/svg">
<g clip-path="url(#clip0_6946_21616)">
<rect x="8.93726" y="22.1299" width="22.1455" height="8.724" fill="#189A71"/>
<ellipse cx="20.01" cy="30.8544" rx="11.0728" ry="3.35538" fill="#189A71"/>
<path d="M19.4631 8.95248C19.8111 8.7972 20.2088 8.7972 20.5568 8.95248L39.0727 17.2134C40.1331 17.6865 40.1331 19.1917 39.0727 19.6648L20.5568 27.9257C20.2088 28.081 19.8111 28.081 19.4631 27.9257L0.947206 19.6648C-0.1132 19.1917 -0.113204 17.6865 0.947202 17.2134L19.4631 8.95248Z" fill="#55C19F"/>
<path d="M4.21045 20.1069V24.8034" stroke="#FFAD08" stroke-width="1.67769" stroke-linecap="round"/>
<circle cx="4.18246" cy="25.5235" r="1.40926" fill="#FFAD08"/>
<path d="M3.89132 25.4934C4.03693 25.2096 4.44252 25.2096 4.58814 25.4934L6.27167 28.7738C6.40541 29.0344 6.21617 29.3442 5.92325 29.3442H2.5562C2.26328 29.3442 2.07405 29.0344 2.20779 28.7738L3.89132 25.4934Z" fill="#FFAD08"/>
</g>
<defs>
<clipPath id="clip0_6946_21616">
<rect width="40" height="40" fill="white"/>
</clipPath>
</defs>
</svg>
