<svg width="28" height="29" viewBox="0 0 28 29" fill="none" xmlns="http://www.w3.org/2000/svg">
<g clip-path="url(#clip0_6946_24880)">
<g clip-path="url(#clip1_6946_24880)">
<g clip-path="url(#clip2_6946_24880)">
<path d="M5.46833 0.676559H23.6982C24.1837 0.676559 24.578 1.0708 24.578 1.5563V26.4249C24.578 26.9104 24.1837 27.3046 23.6982 27.3046H5.46833C3.72003 27.3046 2.30078 25.8853 2.30078 24.137V3.84411C2.30078 2.09581 3.72003 0.676559 5.46833 0.676559Z" fill="#3B9377"/>
<path d="M24.31 0.676559H6.64077V21.1352L5.14453 21.9722C5.61637 22.932 4.76333 22.7718 6.08946 22.7718H24.3094C24.7955 22.7718 25.1891 22.4446 25.1891 22.0417V1.40668C25.1891 1.00312 24.7955 0.676559 24.31 0.676559Z" fill="#4BA78A"/>
<path d="M24.7686 22.4219H4.48438V27.3054H24.7686V22.4219Z" fill="#D5E6E0"/>
<path d="M23.8387 26.3116C23.8152 26.3129 23.7922 26.3153 23.768 26.3153H6.20304C5.48907 26.3153 4.90858 25.7349 4.90858 25.0209V24.3665C4.90858 23.6525 5.48907 23.0721 6.20304 23.0721H23.768C23.7916 23.0721 23.8152 23.0746 23.8387 23.0758V21.0872C23.8152 21.0872 23.7916 21.0854 23.768 21.0854H6.20304C4.3939 21.0854 2.92188 22.5574 2.92188 24.3665V25.0209C2.92188 26.83 4.3939 28.3021 6.20304 28.3021H23.768C23.7916 28.3021 23.8152 28.3008 23.8387 28.3002V26.3116Z" fill="#4BA78A"/>
<path d="M23.8477 21.0866H25.1986V22.3761C25.1986 22.7648 24.8832 23.0802 24.4945 23.0802H23.8477V21.0866Z" fill="#4BA78A"/>
<path d="M23.8477 26.3085H24.4945C24.8832 26.3085 25.1986 26.6239 25.1986 27.0125V27.5979C25.1986 27.9866 24.8832 28.302 24.4945 28.302H23.8477V26.3085Z" fill="#4BA78A"/>
<path d="M11.793 10.9174C11.793 10.9174 11.9811 11.6934 12.0636 11.6934C12.1462 11.6934 12.1617 11.6934 12.338 11.6934C12.5144 11.6934 12.8471 11.5053 13.0365 11.5357C13.1874 11.5599 13.4748 11.6351 13.4748 11.8939C13.4748 12.1528 12.4516 15.7395 12.4516 15.7395C12.4516 15.7395 12.1692 16.6918 12.9105 17.4213C13.6517 18.1508 15.2505 17.8262 15.2505 17.8262C15.2505 17.8262 16.6381 17.3394 16.6617 17.1395C16.6852 16.9396 16.5325 16.0927 16.2854 16.1045C16.0383 16.1163 15.5565 16.3988 15.3914 16.3635C15.2263 16.328 14.8972 16.1281 14.909 15.8344C14.9208 15.5408 15.9321 12.4123 15.9321 12.4123C15.9321 12.4123 16.3717 11.3364 15.4969 10.5896C15.0126 10.1767 12.8509 9.5782 11.793 10.9186V10.9174Z" fill="white"/>
<path d="M15.063 8.80207C15.7149 8.80207 16.2432 8.27366 16.2432 7.62185C16.2432 6.97002 15.7149 6.44162 15.063 6.44162C14.4112 6.44162 13.8828 6.97002 13.8828 7.62185C13.8828 8.27366 14.4112 8.80207 15.063 8.80207Z" fill="white"/>
</g>
</g>
</g>
<defs>
<clipPath id="clip0_6946_24880">
<rect width="28" height="28.8493" fill="white"/>
</clipPath>
<clipPath id="clip1_6946_24880">
<rect width="28" height="28.8493" fill="white"/>
</clipPath>
<clipPath id="clip2_6946_24880">
<rect width="28" height="28.8485" fill="white" transform="translate(0 0.000457764)"/>
</clipPath>
</defs>
</svg>
