<svg width="30" height="31" viewBox="0 0 30 31" fill="none" xmlns="http://www.w3.org/2000/svg">
<g clip-path="url(#clip0_6946_24867)">
<g clip-path="url(#clip1_6946_24867)">
<path d="M4.86558 1.86349H2.7895C1.57251 1.86349 0.585938 2.85006 0.585938 4.06706V27.5377C0.585938 28.7547 1.57251 29.7413 2.7895 29.7413H4.86558C6.08258 29.7413 7.06915 28.7547 7.06915 27.5377V4.06706C7.06915 2.85006 6.08258 1.86349 4.86558 1.86349Z" fill="#FCAF17"/>
<path d="M0.585938 23.8203H7.06915" stroke="#C38303" stroke-width="1.46905"/>
<path d="M0.585938 6.31564H7.06915" stroke="#C38303" stroke-width="1.46905"/>
<path d="M13.2914 1.86349H11.2153C9.99829 1.86349 9.01172 2.85006 9.01172 4.06706V27.5377C9.01172 28.7547 9.99829 29.7413 11.2153 29.7413H13.2914C14.5084 29.7413 15.4949 28.7547 15.4949 27.5377V4.06706C15.4949 2.85006 14.5084 1.86349 13.2914 1.86349Z" fill="#B6D43E"/>
<path d="M9.01172 23.8203H15.4949" stroke="#758B1D" stroke-width="1.46905"/>
<path d="M9.01172 6.31564H15.4949" stroke="#758B1D" stroke-width="1.46905"/>
<path d="M20.0205 2.06955L18.0152 2.60688C16.8397 2.92186 16.1421 4.13015 16.457 5.30568L22.5317 27.9766C22.8467 29.1522 24.055 29.8498 25.2305 29.5348L27.2359 28.9975C28.4114 28.6825 29.109 27.4742 28.794 26.2986L22.7193 3.6277C22.4044 2.45217 21.1961 1.75457 20.0205 2.06955Z" fill="#28AFE7"/>
<path d="M21.5703 24.3853L27.8326 22.7073" stroke="#1E799E" stroke-width="1.46905"/>
<path d="M17.0391 7.47747L23.3013 5.79949" stroke="#1E799E" stroke-width="1.46905"/>
</g>
</g>
<defs>
<clipPath id="clip0_6946_24867">
<rect width="30" height="30" fill="white" transform="translate(0 0.589752)"/>
</clipPath>
<clipPath id="clip1_6946_24867">
<rect width="30" height="30" fill="white" transform="translate(0 0.589752)"/>
</clipPath>
</defs>
</svg>
