<svg width="33" height="33" viewBox="0 0 33 33" fill="none" xmlns="http://www.w3.org/2000/svg">
<g clip-path="url(#clip0_3138_584)">
<path d="M29.605 8.92711H2.20557V4.13652C2.20557 3.39827 2.80941 2.79443 3.54765 2.79443H28.2629C29.0012 2.79443 29.605 3.39827 29.605 4.13652V8.92711Z" fill="#227E61"/>
<path d="M2.20557 10.2563H29.605V30.181C29.605 30.9193 29.0012 31.5231 28.2629 31.5231H3.54765C2.80941 31.5231 2.20557 30.9193 2.20557 30.181V10.2563Z" fill="#D6D6D6"/>
<path d="M2.20557 8.92725H29.605V28.8519C29.605 29.5902 29.0012 30.194 28.2629 30.194H3.54765C2.80941 30.194 2.20557 29.5902 2.20557 28.8519V8.92725Z" fill="#EEEEEE"/>
<path d="M12.7281 5.62343C13.3801 5.62343 13.9137 5.0898 13.9137 4.43782V2.00641C13.9137 1.35443 13.3801 0.820801 12.7281 0.820801C12.0761 0.820801 11.5425 1.35443 11.5425 2.00641V4.43782C11.5425 5.0898 12.0761 5.62343 12.7281 5.62343Z" fill="#595959"/>
<path d="M6.48053 5.62343C7.13252 5.62343 7.66614 5.0898 7.66614 4.43782V2.00641C7.66614 1.35443 7.13252 0.820801 6.48053 0.820801C5.82855 0.820801 5.29492 1.35443 5.29492 2.00641V4.43782C5.29492 5.0898 5.82855 5.62343 6.48053 5.62343Z" fill="#595959"/>
<path d="M26.5138 4.43782V2.00641C26.5138 1.35443 25.9802 0.820801 25.3282 0.820801C24.6762 0.820801 24.1426 1.35443 24.1426 2.00641V4.43782C24.1426 5.0898 24.6762 5.62343 25.3282 5.62343C25.9802 5.62343 26.5138 5.0898 26.5138 4.43782Z" fill="#595959"/>
<path d="M14.2505 10.9358H11.3015C10.9282 10.9358 10.6255 11.2385 10.6255 11.6119V14.3763C10.6255 14.7496 10.9282 15.0523 11.3015 15.0523H14.2505C14.6239 15.0523 14.9266 14.7496 14.9266 14.3763V11.6119C14.9266 11.2385 14.6239 10.9358 14.2505 10.9358Z" fill="#767676"/>
<path d="M20.544 10.9358H17.595C17.2216 10.9358 16.9189 11.2385 16.9189 11.6119V14.3763C16.9189 14.7496 17.2216 15.0523 17.595 15.0523H20.544C20.9174 15.0523 21.22 14.7496 21.22 14.3763V11.6119C21.22 11.2385 20.9174 10.9358 20.544 10.9358Z" fill="#767676"/>
<path d="M26.8389 10.9358H23.8899C23.5165 10.9358 23.2139 11.2385 23.2139 11.6119V14.3763C23.2139 14.7496 23.5165 15.0523 23.8899 15.0523H26.8389C27.2123 15.0523 27.515 14.7496 27.515 14.3763V11.6119C27.515 11.2385 27.2123 10.9358 26.8389 10.9358Z" fill="#FCAF17"/>
<path d="M14.2505 17.3872H11.3015C10.9282 17.3872 10.6255 17.6899 10.6255 18.0633V20.8277C10.6255 21.2011 10.9282 21.5037 11.3015 21.5037H14.2505C14.6239 21.5037 14.9266 21.2011 14.9266 20.8277V18.0633C14.9266 17.6899 14.6239 17.3872 14.2505 17.3872Z" fill="#FCAF17"/>
<path d="M7.95463 17.3872H5.00565C4.63227 17.3872 4.32959 17.6899 4.32959 18.0633V20.8277C4.32959 21.2011 4.63227 21.5037 5.00565 21.5037H7.95463C8.32801 21.5037 8.63069 21.2011 8.63069 20.8277V18.0633C8.63069 17.6899 8.32801 17.3872 7.95463 17.3872Z" fill="#767676"/>
<path d="M20.544 17.3872H17.595C17.2216 17.3872 16.9189 17.6899 16.9189 18.0633V20.8277C16.9189 21.2011 17.2216 21.5037 17.595 21.5037H20.544C20.9174 21.5037 21.22 21.2011 21.22 20.8277V18.0633C21.22 17.6899 20.9174 17.3872 20.544 17.3872Z" fill="#767676"/>
<path d="M26.8389 17.3872H23.8899C23.5165 17.3872 23.2139 17.6899 23.2139 18.0633V20.8277C23.2139 21.2011 23.5165 21.5037 23.8899 21.5037H26.8389C27.2123 21.5037 27.515 21.2011 27.515 20.8277V18.0633C27.515 17.6899 27.2123 17.3872 26.8389 17.3872Z" fill="#FCAF17"/>
<path d="M14.2505 23.8389H11.3015C10.9282 23.8389 10.6255 24.1415 10.6255 24.5149V27.2793C10.6255 27.6527 10.9282 27.9554 11.3015 27.9554H14.2505C14.6239 27.9554 14.9266 27.6527 14.9266 27.2793V24.5149C14.9266 24.1415 14.6239 23.8389 14.2505 23.8389Z" fill="#767676"/>
<path d="M7.95463 23.8389H5.00565C4.63227 23.8389 4.32959 24.1415 4.32959 24.5149V27.2793C4.32959 27.6527 4.63227 27.9554 5.00565 27.9554H7.95463C8.32801 27.9554 8.63069 27.6527 8.63069 27.2793V24.5149C8.63069 24.1415 8.32801 23.8389 7.95463 23.8389Z" fill="#767676"/>
<path d="M20.544 23.8389H17.595C17.2216 23.8389 16.9189 24.1415 16.9189 24.5149V27.2793C16.9189 27.6527 17.2216 27.9554 17.595 27.9554H20.544C20.9174 27.9554 21.22 27.6527 21.22 27.2793V24.5149C21.22 24.1415 20.9174 23.8389 20.544 23.8389Z" fill="#767676"/>
<path d="M26.8389 23.8389H23.8899C23.5165 23.8389 23.2139 24.1415 23.2139 24.5149V27.2793C23.2139 27.6527 23.5165 27.9554 23.8899 27.9554H26.8389C27.2123 27.9554 27.515 27.6527 27.515 27.2793V24.5149C27.515 24.1415 27.2123 23.8389 26.8389 23.8389Z" fill="#FCAF17"/>
<path d="M19.0831 5.62343C19.7351 5.62343 20.2687 5.0898 20.2687 4.43782V2.00641C20.2687 1.35443 19.7351 0.820801 19.0831 0.820801C18.4311 0.820801 17.8975 1.35443 17.8975 2.00641V4.43782C17.8975 5.0898 18.4311 5.62343 19.0831 5.62343Z" fill="#595959"/>
</g>
<defs>
<clipPath id="clip0_3138_584">
<rect width="27.24" height="31.8907" fill="white" transform="translate(2.20557 0.890869)"/>
</clipPath>
</defs>
</svg>
