<svg width="40" height="41" viewBox="0 0 40 41" fill="none" xmlns="http://www.w3.org/2000/svg">
<path d="M29.388 5.55762H7.2981C7.43037 6.55409 8.27693 7.3301 9.30868 7.3301H31.2311L29.3792 5.55762H29.388Z" fill="#DCDCDC"/>
<path d="M26.9189 3.25586H9.31747C8.28572 3.25586 7.43034 4.02305 7.30688 5.02835H28.7972L26.9277 3.25586H26.9189Z" fill="#DCDCDC"/>
<path d="M29.5291 5.68097H7.22754V5.00195H28.7972L29.5291 5.68097Z" fill="white"/>
<path d="M34.6878 8.04444H9.27337C7.79189 8.04444 6.58377 6.83633 6.58377 5.35484C6.58377 3.87336 7.79189 2.66525 9.27337 2.66525H28.9118V2.64761C29.1675 2.6388 29.3704 2.42715 29.3704 2.17142V1.17495C29.3704 0.919218 29.1675 0.707578 28.9118 0.69876L24.194 0.689941H9.36155V0.707578C6.36332 0.928037 4 3.43245 4 6.49241V35.8134C4 37.2155 4.67019 38.4677 5.70194 39.2614C6.65432 40.1432 7.93298 40.6899 9.3351 40.6899H34.6878C35.2257 40.6899 35.6578 40.2578 35.6578 39.7199V9.01446C35.6578 8.47654 35.2257 8.04444 34.6878 8.04444Z" fill="#FCA742"/>
</svg>
