<svg width="40" height="40" viewBox="0 0 40 40" fill="none" xmlns="http://www.w3.org/2000/svg">
<g clip-path="url(#clip0_6785_23444)">
<path d="M15.291 11.8807C15.9992 11.4936 16.8109 11.4516 17.5795 11.3674C18.7021 11.2412 19.8334 11.0561 20.9646 11.1234C24.4188 11.3253 27.7435 12.0237 30.6969 13.8579C31.5605 14.3964 32.4758 14.9013 33.1235 15.7258C33.1062 16.054 33.2617 16.2054 33.5898 16.1718C33.5898 16.3401 33.5726 16.4999 33.6848 16.6598C34.6606 18.107 35.3256 19.6468 35.4724 21.4137C35.5846 22.7431 35.5846 24.0388 35.2133 25.3346C34.7902 26.8407 34.0993 28.2206 33.1321 29.4743C31.9663 30.9972 30.4465 32.1163 28.8057 33.1007C27.6485 33.799 26.3705 34.2366 25.0924 34.6825C24.6693 34.8256 24.2375 34.8592 23.8144 34.977C22.8903 35.2462 21.9491 35.4145 20.9905 35.4482C19.6779 35.4903 18.3653 35.4734 17.0527 35.4482C16.3964 35.4482 15.7401 35.3136 15.127 35.1537C14.3757 34.9518 13.6071 34.8255 12.8644 34.5984C11.9491 34.3207 11.0682 33.9589 10.222 33.5719C9.47066 33.2185 8.66755 32.8483 8.04578 32.2509C7.95079 32.1583 7.76945 31.99 7.60537 32.2004C7.10451 31.8302 6.77635 31.3253 6.39639 30.8542C6.28413 30.7111 6.22368 30.5092 5.99915 30.4755C6.34457 30.1642 5.86098 30.1306 5.78326 30.0296C5.14423 29.1293 5.20468 29.4154 4.52247 28.4057C4.24613 28.0018 4.09069 27.7662 3.65027 27.7578C2.89898 27.741 2.17359 27.6232 1.45684 27.3624C1.12869 27.2446 0.731449 27.0595 0.351484 27.3035C0.0665096 26.2265 -0.0112106 23.8285 0.135594 22.7347C0.196043 22.3308 0.247857 21.9354 0.403297 21.5399C0.610551 21.0182 0.990517 20.8247 1.50865 20.7995C2.38948 20.7574 3.27031 20.7069 4.15977 20.6901C4.49656 20.6901 4.61746 20.547 4.72972 20.261C5.69691 17.7452 7.38085 15.7763 9.652 14.2786C9.87653 14.1272 9.94561 13.9589 9.93698 13.7233C9.92834 13.1764 9.91971 12.6379 9.93698 12.091C9.95425 11.5189 10.1183 11.0224 10.6883 10.7364C11.2582 10.4419 11.7159 10.6691 12.165 10.9972C12.5881 11.3085 12.8731 11.7292 13.158 12.1415C13.2271 12.2425 13.2789 12.3182 13.3998 12.3434C13.3998 12.4528 13.3912 12.5706 13.4258 12.68C13.7366 13.7149 13.7971 14.733 13.158 15.6922C13.1149 15.7595 13.0717 15.8268 13.1321 15.8941C13.2099 15.9783 13.3135 15.9446 13.3998 15.8941C14.0907 15.4818 14.6779 15.0022 15.032 14.245C15.3947 13.4709 15.196 12.6632 15.2738 11.8722L15.291 11.8807ZM21.1632 13.9253C21.5518 13.9589 22.0527 13.9253 22.5536 13.9842C23.4517 14.0767 24.3411 14.2282 25.2306 14.3628C25.6537 14.4301 25.9646 14.2197 26.0164 13.799C26.0682 13.3868 25.8264 13.1259 25.4119 13.0418C22.4327 12.4107 19.4534 12.436 16.4827 13.0502C15.9992 13.1512 15.7055 13.5214 15.8178 13.8832C15.9646 14.3207 16.2669 14.489 16.7591 14.388C18.1753 14.0851 19.6002 13.9 21.1546 13.9168L21.1632 13.9253ZM9.3843 18.9989C8.72799 18.9989 8.14941 19.529 8.1235 20.16C8.10623 20.7826 8.71936 21.4053 9.35839 21.4137C10.0406 21.4221 10.6192 20.8415 10.6278 20.1432C10.6278 19.5037 10.0751 18.9989 9.3843 18.9989Z" fill="#FDC0BF"/>
<path d="M15.2911 11.8804C15.2134 12.6713 15.412 13.4706 15.0493 14.2531C14.7039 15.002 14.108 15.49 13.4172 15.9022C13.3394 15.9527 13.2358 15.978 13.1495 15.9022C13.089 15.8349 13.1322 15.7676 13.1754 15.7003C13.8144 14.7411 13.7626 13.7314 13.4431 12.6881C13.4085 12.5871 13.4258 12.4693 13.4172 12.3516C14.013 12.1075 14.6175 11.8804 15.2825 11.8804H15.2911Z" fill="#FDC0BF"/>
<path d="M39.0646 22.6081C38.6069 23.2139 37.9679 23.5421 37.3634 23.9291C36.9921 24.1647 36.7071 24.0553 36.6726 23.643C36.638 23.1887 36.4221 22.7848 36.3962 22.3389C37.3202 22.3809 38.1665 22.2042 38.9265 21.6489" fill="#FCC0C0"/>
<path d="M33.5035 16.1803C33.1667 16.2056 33.0113 16.0541 33.0372 15.7344C33.2099 15.869 33.4517 15.9363 33.5035 16.1803Z" fill="#FCAFAE"/>
<path d="M21.1633 13.9253C19.6002 13.9001 18.1754 14.0936 16.7678 14.3965C16.2755 14.4975 15.9733 14.3292 15.8265 13.8917C15.7056 13.5299 15.9992 13.1596 16.4914 13.0587C19.4707 12.4445 22.4413 12.4192 25.4206 13.0503C25.8351 13.1344 26.0855 13.3952 26.0251 13.8075C25.9733 14.2198 25.6624 14.4301 25.2393 14.3712C24.3498 14.2282 23.4603 14.0852 22.5622 13.9926C22.0614 13.9421 21.5605 13.959 21.1719 13.9337L21.1633 13.9253Z" fill="#A86C6C"/>
<path d="M9.38438 18.999C10.0839 18.999 10.6279 19.5039 10.6279 20.1433C10.6279 20.8417 10.0493 21.4222 9.35847 21.4138C8.71944 21.4054 8.09768 20.7828 8.12359 20.1602C8.14086 19.5375 8.71944 18.999 9.38438 18.999Z" fill="#A86C6C"/>
<path d="M20.9645 8.17838C23.2823 8.17838 25.1614 6.34758 25.1614 4.08919C25.1614 1.83079 23.2823 0 20.9645 0C18.6466 0 16.7676 1.83079 16.7676 4.08919C16.7676 6.34758 18.6466 8.17838 20.9645 8.17838Z" fill="#FFF758"/>
<path d="M20.9646 7.15222C22.7007 7.15222 24.108 5.78101 24.108 4.08954C24.108 2.39807 22.7007 1.02686 20.9646 1.02686C19.2286 1.02686 17.8213 2.39807 17.8213 4.08954C17.8213 5.78101 19.2286 7.15222 20.9646 7.15222Z" fill="#FFF758"/>
<path d="M39.2807 21.4054C38.823 22.0112 38.184 22.3393 37.5795 22.7264C37.2081 22.9619 36.9232 22.8526 36.8886 22.4403C36.8541 21.9859 36.6382 21.5821 36.6123 21.1361C36.4396 20.6649 36.3014 20.1853 36.0855 19.731C35.4638 18.41 34.7729 17.1311 33.5985 16.1719C33.5985 16.3402 33.5812 16.5 33.6935 16.6599C34.6693 18.1071 35.3342 19.6468 35.481 21.4138C35.5933 22.7432 35.5933 24.0389 35.222 25.3347C34.7988 26.8408 34.108 28.2207 33.1408 29.4744C31.975 30.9973 30.4551 32.1163 28.8144 33.1008C27.6572 33.7991 26.3791 34.2367 25.1011 34.6826C24.6779 34.8256 24.2375 34.8593 23.823 34.9771C22.899 35.2463 21.9577 35.4146 20.9992 35.4483C19.6866 35.4903 18.3739 35.4735 17.0613 35.4483C16.405 35.4483 15.7487 35.3137 15.1356 35.1538C14.3843 34.9518 13.6157 34.8256 12.8731 34.5985C11.9577 34.3208 11.0769 33.959 10.2306 33.572C9.4793 33.2186 8.67619 32.8484 8.05443 32.251C7.95944 32.1584 7.77809 31.9901 7.61401 32.2005C8.08033 32.7979 8.68483 33.2438 9.30659 33.6645C10.1183 34.2198 10.9819 34.7078 11.8195 35.2295C12.6831 35.4735 13.4603 35.9279 14.3325 36.1466C14.3325 36.1466 19.4966 37.7537 25.291 36.4411C25.3256 36.4327 25.3601 36.4243 25.3947 36.4075C25.4292 36.3906 25.4551 36.3991 25.4897 36.3906C26.785 36.0793 28.1149 35.625 29.4188 34.9687C31.2237 34.2114 32.7349 32.9998 34.0216 31.561C35.6969 29.6763 36.7418 27.5055 36.9318 24.9897C36.9577 24.6616 37.0786 24.4849 37.4068 24.3839C38.6157 24.0137 39.4707 23.2228 39.9888 22.1206" fill="#FDC0BF"/>
<path d="M6.9751 31.3838C6.9751 31.3838 10.4639 35.3384 10.7661 38.8049C10.7661 38.8049 10.8266 39.9997 11.7333 39.9997H14.8076C15.3516 39.9997 15.6884 39.68 15.6884 39.1415C15.6884 38.603 15.5502 33.2601 15.5502 33.2601L6.9751 31.3838Z" fill="#FDC0BF"/>
<path d="M34.0736 31.3838C34.0736 31.3838 30.5849 35.3384 30.2826 38.8049C30.2826 38.8049 30.2222 39.9997 29.3154 39.9997H26.2412C25.6971 39.9997 25.3604 39.68 25.3604 39.1415C25.3604 38.603 25.4985 33.2601 25.4985 33.2601L34.0736 31.3838Z" fill="#FDC0BF"/>
<path d="M0.584767 21.2534C0.584767 21.2534 -0.5724 23.988 0.368878 27.3031L5.22207 28.2454V22.7848L0.584767 21.2534Z" fill="#FDC0BF"/>
</g>
<defs>
<clipPath id="clip0_6785_23444">
<rect width="40" height="40" fill="white"/>
</clipPath>
</defs>
</svg>
