<svg width="193" height="27" viewBox="0 0 193 27" fill="none" xmlns="http://www.w3.org/2000/svg">
<path d="M177.67 5.1346C177.976 5.16527 178.306 5.19593 178.659 5.2266C179.011 5.24193 179.333 5.2496 179.625 5.2496C179.87 5.2496 180.246 5.24193 180.752 5.2266C181.258 5.21127 181.825 5.19593 182.454 5.1806C183.082 5.16527 183.711 5.14994 184.34 5.1346C184.984 5.11927 185.559 5.09627 186.065 5.0656C186.571 5.03493 186.954 5.01193 187.215 4.9966C187.644 4.96594 187.981 4.93527 188.227 4.9046C188.487 4.8586 188.687 4.8126 188.825 4.7666L190.182 6.6296C189.936 6.78294 189.683 6.94394 189.423 7.1126C189.162 7.28127 188.909 7.4576 188.664 7.6416C188.357 7.85627 187.981 8.1476 187.537 8.5156C187.092 8.86827 186.617 9.25927 186.111 9.6886C185.605 10.1026 185.106 10.5089 184.616 10.9076C184.125 11.3063 183.68 11.6666 183.282 11.9886C183.711 11.8506 184.125 11.7663 184.524 11.7356C184.938 11.6896 185.352 11.6666 185.766 11.6666C187.054 11.6666 188.204 11.9119 189.216 12.4026C190.243 12.8933 191.056 13.5679 191.654 14.4266C192.252 15.2699 192.551 16.2436 192.551 17.3476C192.551 18.5589 192.236 19.6476 191.608 20.6136C190.994 21.5796 190.074 22.3386 188.848 22.8906C187.636 23.4579 186.134 23.7416 184.34 23.7416C183.282 23.7416 182.339 23.5883 181.511 23.2816C180.698 22.9903 180.054 22.5763 179.579 22.0396C179.119 21.4876 178.889 20.8436 178.889 20.1076C178.889 19.5096 179.05 18.9499 179.372 18.4286C179.709 17.9073 180.177 17.4856 180.775 17.1636C181.373 16.8416 182.063 16.6806 182.845 16.6806C183.887 16.6806 184.761 16.8953 185.467 17.3246C186.187 17.7386 186.739 18.2983 187.123 19.0036C187.506 19.7089 187.713 20.4679 187.744 21.2806L185.352 21.6256C185.321 20.7516 185.083 20.0386 184.639 19.4866C184.194 18.9346 183.596 18.6586 182.845 18.6586C182.385 18.6586 182.009 18.7813 181.718 19.0266C181.442 19.2719 181.304 19.5556 181.304 19.8776C181.304 20.3376 181.534 20.7056 181.994 20.9816C182.469 21.2576 183.09 21.3956 183.857 21.3956C185.145 21.3956 186.233 21.2346 187.123 20.9126C188.027 20.5906 188.71 20.1229 189.17 19.5096C189.63 18.8963 189.86 18.1603 189.86 17.3016C189.86 16.5963 189.645 15.9753 189.216 15.4386C188.786 14.8866 188.204 14.4573 187.468 14.1506C186.732 13.8439 185.904 13.6906 184.984 13.6906C184.079 13.6906 183.251 13.8056 182.5 14.0356C181.748 14.2503 181.043 14.5569 180.384 14.9556C179.724 15.3543 179.08 15.8449 178.452 16.4276C177.838 16.9949 177.202 17.6313 176.543 18.3366L174.68 16.4046C175.109 16.0673 175.592 15.6763 176.129 15.2316C176.665 14.7869 177.21 14.3346 177.762 13.8746C178.314 13.4146 178.835 12.9776 179.326 12.5636C179.816 12.1496 180.23 11.8046 180.568 11.5286C180.89 11.2679 181.273 10.9536 181.718 10.5856C182.162 10.2176 182.622 9.83427 183.098 9.4356C183.573 9.03693 184.025 8.66127 184.455 8.3086C184.884 7.9406 185.237 7.63394 185.513 7.3886C185.283 7.3886 184.968 7.40394 184.57 7.4346C184.171 7.44993 183.734 7.46527 183.259 7.4806C182.783 7.49593 182.308 7.51894 181.833 7.5496C181.357 7.56493 180.913 7.58793 180.499 7.6186C180.1 7.63393 179.778 7.64927 179.533 7.6646C179.241 7.67993 178.935 7.70293 178.613 7.7336C178.306 7.74894 178.022 7.7796 177.762 7.8256L177.67 5.1346Z" fill="white"/>
<path d="M164.351 4.05371C164.335 4.16104 164.312 4.34504 164.282 4.60571C164.266 4.85104 164.251 5.09638 164.235 5.34171C164.22 5.58704 164.213 5.76338 164.213 5.87071C164.197 6.17738 164.182 6.59138 164.166 7.11271C164.166 7.61871 164.166 8.18604 164.166 8.81471C164.166 9.42805 164.166 10.049 164.166 10.6777C164.182 11.3064 164.19 11.8967 164.19 12.4487C164.205 13.0007 164.213 13.4607 164.213 13.8287L161.66 12.8857C161.66 12.625 161.66 12.257 161.66 11.7817C161.66 11.3064 161.652 10.785 161.636 10.2177C161.636 9.63504 161.629 9.06004 161.614 8.49271C161.614 7.92538 161.606 7.41171 161.59 6.95171C161.59 6.49171 161.583 6.13904 161.568 5.89371C161.537 5.47971 161.498 5.10404 161.452 4.76671C161.422 4.41404 161.391 4.17638 161.361 4.05371H164.351ZM151.562 6.99771C152.237 6.99771 152.988 6.99005 153.816 6.97471C154.66 6.95938 155.542 6.94404 156.462 6.92871C157.397 6.89804 158.317 6.87504 159.222 6.85971C160.142 6.84438 161 6.83671 161.798 6.83671C162.61 6.82138 163.331 6.81371 163.959 6.81371C164.573 6.81371 165.224 6.81371 165.914 6.81371C166.604 6.79838 167.272 6.79071 167.916 6.79071C168.575 6.79071 169.173 6.79838 169.709 6.81371C170.246 6.81371 170.66 6.81371 170.951 6.81371L170.929 9.22871C170.239 9.19804 169.311 9.17504 168.146 9.15971C166.996 9.12904 165.577 9.11371 163.89 9.11371C162.863 9.11371 161.805 9.12904 160.716 9.15971C159.643 9.17504 158.57 9.19804 157.496 9.22871C156.438 9.25938 155.411 9.29771 154.414 9.34371C153.433 9.38971 152.506 9.44338 151.632 9.50471L151.562 6.99771ZM163.914 13.7827C163.914 14.9634 163.76 15.9524 163.453 16.7497C163.147 17.5317 162.71 18.122 162.143 18.5207C161.575 18.9194 160.87 19.1187 160.027 19.1187C159.582 19.1187 159.122 19.0344 158.646 18.8657C158.186 18.6817 157.765 18.421 157.382 18.0837C156.998 17.731 156.692 17.3017 156.462 16.7957C156.232 16.2744 156.117 15.6764 156.117 15.0017C156.117 14.1584 156.316 13.4224 156.715 12.7937C157.129 12.165 157.673 11.6744 158.348 11.3217C159.022 10.969 159.758 10.7927 160.556 10.7927C161.537 10.7927 162.357 11.015 163.017 11.4597C163.676 11.889 164.174 12.4794 164.511 13.2307C164.849 13.9667 165.017 14.81 165.017 15.7607C165.017 16.512 164.895 17.294 164.649 18.1067C164.419 18.9194 164.028 19.709 163.476 20.4757C162.924 21.227 162.181 21.917 161.245 22.5457C160.325 23.1744 159.168 23.688 157.772 24.0867L155.588 21.9017C156.584 21.687 157.497 21.411 158.325 21.0737C159.168 20.7364 159.896 20.3147 160.509 19.8087C161.138 19.2874 161.621 18.6664 161.959 17.9457C162.296 17.225 162.465 16.3664 162.465 15.3697C162.465 14.5417 162.273 13.936 161.89 13.5527C161.522 13.154 161.061 12.9547 160.509 12.9547C160.187 12.9547 159.873 13.0314 159.566 13.1847C159.275 13.338 159.038 13.568 158.854 13.8747C158.67 14.166 158.577 14.5264 158.577 14.9557C158.577 15.5384 158.769 15.9984 159.153 16.3357C159.551 16.673 160.003 16.8417 160.509 16.8417C160.923 16.8417 161.276 16.7267 161.568 16.4967C161.874 16.2514 162.073 15.8604 162.165 15.3237C162.273 14.7717 162.219 14.0587 162.005 13.1847L163.914 13.7827Z" fill="white"/>
<path d="M140.547 20.0618H146.55V22.4308H140.547V20.0618ZM127.667 7.20482H136.2V9.61982H127.667V7.20482ZM139.443 5.70982H147.654V23.8798H145.193V8.10182H141.812V24.0638H139.443V5.70982ZM135.579 7.20482H137.971C137.971 7.20482 137.971 7.28149 137.971 7.43482C137.971 7.58815 137.971 7.75682 137.971 7.94082C137.971 8.12482 137.971 8.27049 137.971 8.37782C137.925 10.8618 137.871 12.9702 137.81 14.7028C137.764 16.4355 137.703 17.8538 137.626 18.9578C137.549 20.0618 137.45 20.9282 137.327 21.5568C137.22 22.1702 137.074 22.6072 136.89 22.8678C136.645 23.2205 136.384 23.4735 136.108 23.6268C135.847 23.7802 135.533 23.8952 135.165 23.9718C134.843 24.0332 134.429 24.0638 133.923 24.0638C133.432 24.0792 132.926 24.0715 132.405 24.0408C132.39 23.6728 132.321 23.2512 132.198 22.7758C132.075 22.3158 131.907 21.9095 131.692 21.5568C132.167 21.6028 132.612 21.6335 133.026 21.6488C133.44 21.6488 133.747 21.6488 133.946 21.6488C134.115 21.6642 134.26 21.6412 134.383 21.5798C134.506 21.5185 134.621 21.4112 134.728 21.2578C134.851 21.0738 134.958 20.7135 135.05 20.1768C135.142 19.6248 135.219 18.8275 135.28 17.7848C135.357 16.7422 135.41 15.4005 135.441 13.7598C135.487 12.1192 135.533 10.1182 135.579 7.75682V7.20482ZM130.542 3.34082H132.98C132.965 5.56415 132.926 7.70315 132.865 9.75782C132.804 11.8125 132.65 13.7522 132.405 15.5768C132.16 17.3862 131.753 19.0422 131.186 20.5448C130.619 22.0475 129.837 23.3662 128.84 24.5008C128.717 24.3015 128.549 24.0868 128.334 23.8568C128.119 23.6422 127.897 23.4275 127.667 23.2128C127.437 22.9982 127.215 22.8295 127 22.7068C127.736 21.9095 128.326 20.9972 128.771 19.9698C129.231 18.9272 129.584 17.7925 129.829 16.5658C130.074 15.3238 130.243 14.0052 130.335 12.6098C130.442 11.1992 130.504 9.71949 130.519 8.17082C130.534 6.60682 130.542 4.99682 130.542 3.34082Z" fill="white"/>
<path d="M109.775 12.0117V20.4067H107.36V14.3117H104.531V12.0117H109.775ZM109.775 19.3257C110.265 20.1077 110.955 20.6827 111.845 21.0507C112.749 21.4187 113.815 21.6333 115.042 21.6947C115.701 21.71 116.491 21.7253 117.411 21.7407C118.331 21.7407 119.297 21.733 120.309 21.7177C121.336 21.7023 122.333 21.6793 123.299 21.6487C124.265 21.6027 125.123 21.549 125.875 21.4877C125.783 21.6717 125.683 21.917 125.576 22.2237C125.468 22.5303 125.369 22.837 125.277 23.1437C125.2 23.4657 125.139 23.7493 125.093 23.9947C124.403 24.0407 123.621 24.0713 122.747 24.0867C121.873 24.102 120.968 24.1097 120.033 24.1097C119.113 24.125 118.216 24.125 117.342 24.1097C116.468 24.1097 115.693 24.0943 115.019 24.0637C113.577 24.0023 112.343 23.7723 111.316 23.3737C110.304 22.9903 109.422 22.3463 108.671 21.4417C108.165 21.9017 107.636 22.3617 107.084 22.8217C106.547 23.297 105.964 23.7877 105.336 24.2937L104.094 21.7177C104.63 21.3957 105.198 21.0277 105.796 20.6137C106.394 20.1843 106.969 19.755 107.521 19.3257H109.775ZM104.623 5.04266L106.463 3.57066C106.938 3.87732 107.421 4.23766 107.912 4.65166C108.418 5.06566 108.885 5.48732 109.315 5.91666C109.759 6.33066 110.112 6.72166 110.373 7.08966L108.418 8.69966C108.188 8.34699 107.858 7.95599 107.429 7.52666C107.015 7.08199 106.562 6.64499 106.072 6.21566C105.581 5.77099 105.098 5.37999 104.623 5.04266ZM113.202 5.31866H123.322V11.6897H113.202V9.66566H120.93V7.34266H113.202V5.31866ZM116.422 2.97266L119.32 3.36366C119.074 3.96166 118.821 4.54432 118.561 5.11166C118.3 5.67899 118.07 6.16199 117.871 6.56066L115.548 6.12366C115.716 5.66366 115.885 5.14232 116.054 4.55966C116.222 3.96166 116.345 3.43266 116.422 2.97266ZM112.006 5.31866H114.398V20.1997H112.006V5.31866ZM113.386 13.4147H124.219V20.1997H113.386V18.1527H121.804V15.4617H113.386V13.4147Z" fill="white"/>
<path d="M90.7115 4.26105C90.6042 4.62905 90.5122 5.00471 90.4355 5.38805C90.3588 5.77138 90.2822 6.13938 90.2055 6.49205C90.1288 6.86005 90.0368 7.28938 89.9295 7.78005C89.8375 8.27071 89.7302 8.79971 89.6075 9.36705C89.4848 9.91905 89.3545 10.4864 89.2165 11.069C89.0938 11.6364 88.9558 12.1807 88.8025 12.702C88.6645 13.2234 88.5188 13.6987 88.3655 14.128C89.3315 13.5607 90.2898 13.162 91.2405 12.932C92.2065 12.6867 93.2262 12.564 94.2995 12.564C95.5415 12.564 96.6148 12.7634 97.5195 13.162C98.4242 13.5607 99.1295 14.1204 99.6355 14.841C100.142 15.5617 100.395 16.405 100.395 17.371C100.395 18.6284 100.096 19.694 99.4975 20.568C98.9148 21.442 98.0792 22.1244 96.9905 22.615C95.9018 23.1057 94.6062 23.42 93.1035 23.558C91.6008 23.696 89.9295 23.673 88.0895 23.489L87.3995 20.844C88.6722 21.0434 89.9142 21.143 91.1255 21.143C92.3522 21.1277 93.4485 20.9974 94.4145 20.752C95.3958 20.5067 96.1702 20.1157 96.7375 19.579C97.3202 19.027 97.6115 18.314 97.6115 17.44C97.6115 16.704 97.3048 16.0754 96.6915 15.554C96.0782 15.0327 95.1812 14.772 94.0005 14.772C92.6665 14.772 91.4245 15.002 90.2745 15.462C89.1398 15.922 88.2198 16.5967 87.5145 17.486C87.3918 17.6547 87.2768 17.8157 87.1695 17.969C87.0622 18.1224 86.9548 18.2987 86.8475 18.498L84.4095 17.647C84.8388 16.8037 85.2375 15.853 85.6055 14.795C85.9735 13.737 86.3032 12.6714 86.5945 11.598C86.8858 10.5247 87.1235 9.52805 87.3075 8.60805C87.4915 7.67271 87.6218 6.91371 87.6985 6.33105C87.7598 5.87105 87.7982 5.48005 87.8135 5.15805C87.8288 4.83605 87.8212 4.49105 87.7905 4.12305L90.7115 4.26105ZM82.9375 7.02105C83.6428 7.12838 84.4172 7.22805 85.2605 7.32005C86.1038 7.39671 86.8782 7.43505 87.5835 7.43505C88.3195 7.43505 89.1322 7.41205 90.0215 7.36605C90.9108 7.32005 91.8462 7.25105 92.8275 7.15905C93.8088 7.06705 94.7978 6.95205 95.7945 6.81405C96.7912 6.66071 97.7495 6.48438 98.6695 6.28505L98.7155 8.76905C97.9642 8.89171 97.1208 9.01438 96.1855 9.13705C95.2502 9.25971 94.2765 9.36705 93.2645 9.45905C92.2525 9.55105 91.2635 9.62771 90.2975 9.68905C89.3315 9.75038 88.4345 9.78105 87.6065 9.78105C86.7632 9.78105 85.9428 9.76571 85.1455 9.73505C84.3635 9.68905 83.6352 9.63538 82.9605 9.57405L82.9375 7.02105Z" fill="white"/>
<path d="M67.5022 4.49051C67.4255 4.79717 67.3412 5.16518 67.2492 5.59451C67.1572 6.00851 67.0805 6.33051 67.0192 6.56051C66.9119 7.09717 66.7815 7.74117 66.6282 8.49251C66.4749 9.22851 66.3062 10.0105 66.1222 10.8385C65.9382 11.6665 65.7465 12.4638 65.5472 13.2305C65.3325 14.0432 65.0795 14.9248 64.7882 15.8755C64.5122 16.8262 64.2055 17.7922 63.8682 18.7735C63.5462 19.7395 63.2165 20.6595 62.8792 21.5335C62.5419 22.4075 62.2199 23.1818 61.9132 23.8565L59.0382 22.8905C59.3909 22.3078 59.7512 21.6025 60.1192 20.7745C60.4872 19.9312 60.8475 19.0265 61.2002 18.0605C61.5682 17.0945 61.8979 16.1362 62.1892 15.1855C62.4959 14.2348 62.7565 13.3608 62.9712 12.5635C63.1245 12.0268 63.2702 11.4672 63.4082 10.8845C63.5462 10.3018 63.6689 9.74217 63.7762 9.20551C63.8989 8.65351 63.9985 8.13984 64.0752 7.66451C64.1672 7.18917 64.2362 6.79051 64.2822 6.46851C64.3282 6.06984 64.3589 5.67117 64.3742 5.27251C64.3895 4.85851 64.3819 4.52117 64.3512 4.26051L67.5022 4.49051ZM61.8442 8.05551C62.7642 8.05551 63.7225 8.00951 64.7192 7.91751C65.7312 7.82551 66.7509 7.69517 67.7782 7.52651C68.8209 7.35784 69.8329 7.15084 70.8142 6.90551V9.48151C69.8635 9.69617 68.8515 9.88017 67.7782 10.0335C66.7202 10.1868 65.6775 10.3095 64.6502 10.4015C63.6229 10.4782 62.6799 10.5165 61.8212 10.5165C61.2692 10.5165 60.7709 10.5088 60.3262 10.4935C59.8969 10.4782 59.4752 10.4552 59.0612 10.4245L58.9922 7.87151C59.5749 7.93284 60.0809 7.97884 60.5102 8.00951C60.9395 8.04017 61.3842 8.05551 61.8442 8.05551ZM69.0892 11.4825C69.7332 11.4058 70.4309 11.3522 71.1822 11.3215C71.9489 11.2755 72.7079 11.2525 73.4592 11.2525C74.1185 11.2525 74.7855 11.2678 75.4602 11.2985C76.1502 11.3292 76.8249 11.3828 77.4842 11.4595L77.4152 13.9205C76.8325 13.8438 76.2039 13.7825 75.5292 13.7365C74.8699 13.6752 74.1875 13.6445 73.4822 13.6445C72.7002 13.6445 71.9489 13.6675 71.2282 13.7135C70.5229 13.7442 69.8099 13.8055 69.0892 13.8975V11.4825ZM70.1242 17.2095C70.0322 17.5468 69.9555 17.8918 69.8942 18.2445C69.8329 18.5818 69.8022 18.8885 69.8022 19.1645C69.8022 19.4252 69.8482 19.6705 69.9402 19.9005C70.0475 20.1152 70.2239 20.3068 70.4692 20.4755C70.7145 20.6442 71.0519 20.7822 71.4812 20.8895C71.9259 20.9815 72.4855 21.0275 73.1602 21.0275C73.9115 21.0275 74.6782 20.9892 75.4602 20.9125C76.2575 20.8205 77.0549 20.7055 77.8522 20.5675L77.7602 23.1895C77.1162 23.2662 76.4109 23.3428 75.6442 23.4195C74.8775 23.4962 74.0419 23.5345 73.1372 23.5345C71.2359 23.5345 69.7792 23.2202 68.7672 22.5915C67.7705 21.9782 67.2722 21.0965 67.2722 19.9465C67.2722 19.4405 67.3105 18.9345 67.3872 18.4285C67.4639 17.9072 67.5559 17.4165 67.6632 16.9565L70.1242 17.2095ZM75.0002 5.18051C75.1995 5.44117 75.4142 5.76317 75.6442 6.14651C75.8742 6.52984 76.0965 6.92084 76.3112 7.31951C76.5259 7.70284 76.7099 8.04017 76.8632 8.33151L75.1842 9.04451C75.0309 8.73784 74.8469 8.39284 74.6322 8.00951C74.4329 7.62617 74.2259 7.24284 74.0112 6.85951C73.7965 6.47617 73.5819 6.13884 73.3672 5.84751L75.0002 5.18051ZM77.6682 4.14551C77.8829 4.43684 78.1052 4.78184 78.3352 5.18051C78.5805 5.56384 78.8105 5.94717 79.0252 6.33051C79.2552 6.69851 79.4315 7.02051 79.5542 7.29651L77.8982 8.03251C77.6682 7.52651 77.3769 6.97451 77.0242 6.37651C76.6869 5.77851 76.3572 5.26484 76.0352 4.83551L77.6682 4.14551Z" fill="white"/>
<path d="M43.8572 12.7476C44.8539 15.2469 46.4025 17.3016 48.5032 18.9116C50.6192 20.5062 53.3255 21.5949 56.6222 22.1776C56.4382 22.3616 56.2465 22.5839 56.0472 22.8446C55.8479 23.1052 55.6562 23.3736 55.4722 23.6496C55.2882 23.9409 55.1425 24.2016 55.0352 24.4316C52.7659 23.9409 50.7725 23.2049 49.0552 22.2236C47.3532 21.2422 45.8965 20.0156 44.6852 18.5436C43.4892 17.0716 42.5002 15.3542 41.7182 13.3916L43.8572 12.7476ZM51.3092 11.5286H51.7922L52.2292 11.4136L53.9312 12.1496C53.4712 13.8822 52.8349 15.4156 52.0222 16.7496C51.2249 18.0682 50.2819 19.2259 49.1932 20.2226C48.1045 21.2192 46.9009 22.0626 45.5822 22.7526C44.2789 23.4579 42.8835 24.0329 41.3962 24.4776C41.2582 24.1556 41.0512 23.7876 40.7752 23.3736C40.5145 22.9596 40.2615 22.6299 40.0162 22.3846C41.3502 22.0319 42.6152 21.5566 43.8112 20.9586C45.0225 20.3606 46.1189 19.6322 47.1002 18.7736C48.0969 17.8996 48.9555 16.9029 49.6762 15.7836C50.3969 14.6489 50.9412 13.3762 51.3092 11.9656V11.5286ZM35.9912 6.56056H56.0242V8.95256H35.9912V6.56056ZM42.4082 11.5286H51.5622V13.9206H41.7182L42.4082 11.5286ZM41.8562 3.01855H44.4322C44.4015 3.49389 44.3632 4.11489 44.3172 4.88156C44.2712 5.64822 44.1945 6.52989 44.0872 7.52656C43.9799 8.50789 43.8189 9.55822 43.6042 10.6776C43.4049 11.7969 43.1365 12.9469 42.7992 14.1276C42.4619 15.2929 42.0402 16.4429 41.5342 17.5776C41.0435 18.7122 40.4455 19.8009 39.7402 20.8436C39.0349 21.8862 38.2069 22.8369 37.2562 23.6956C37.0109 23.3736 36.6965 23.0592 36.3132 22.7526C35.9299 22.4459 35.5312 22.1776 35.1172 21.9476C36.0525 21.1809 36.8652 20.3222 37.5552 19.3716C38.2452 18.4056 38.8279 17.3859 39.3032 16.3126C39.7939 15.2392 40.1925 14.1582 40.4992 13.0696C40.8059 11.9809 41.0435 10.9152 41.2122 9.87256C41.3962 8.82989 41.5265 7.86389 41.6032 6.97456C41.6952 6.06989 41.7565 5.28022 41.7872 4.60555C41.8179 3.91556 41.8409 3.38656 41.8562 3.01855Z" fill="white"/>
<g clip-path="url(#clip0_3916_1058)">
<path d="M29 11.498C29 5.15803 22.4955 0 14.5 0C6.50455 0 0 5.15803 0 11.498C0 17.1819 5.15906 21.9416 12.1271 22.842C12.5987 22.9416 13.2415 23.1461 13.4046 23.5405C13.5514 23.8991 13.4997 24.4595 13.4522 24.822C13.4522 24.822 13.2823 25.822 13.2456 26.0345C13.1817 26.3931 12.9547 27.4356 14.5014 26.7981C16.0493 26.1607 22.8515 21.9934 25.8931 18.5724C27.9943 16.3201 29.0014 14.0359 29.0014 11.498H29Z" fill="white"/>
<path d="M24.1785 15.1587H20.1054C19.9518 15.1587 19.8281 15.0378 19.8281 14.8878V14.8838V8.71115V8.70451C19.8281 8.55444 19.9518 8.43359 20.1054 8.43359H24.1785C24.3308 8.43359 24.4558 8.55577 24.4558 8.70451V9.70982C24.4558 9.85989 24.3321 9.98074 24.1785 9.98074H21.4101V11.0246H24.1785C24.3308 11.0246 24.4558 11.1467 24.4558 11.2955V12.3008C24.4558 12.4509 24.3321 12.5717 24.1785 12.5717H21.4101V13.6155H24.1785C24.3308 13.6155 24.4558 13.7377 24.4558 13.8864V14.8918C24.4558 15.0418 24.3321 15.1627 24.1785 15.1627V15.1587Z" fill="#00A75B"/>
<path d="M9.10958 15.159C9.2618 15.159 9.38683 15.0382 9.38683 14.8881V13.8828C9.38683 13.7341 9.2618 13.6119 9.10958 13.6119H6.34114V8.70353C6.34114 8.5548 6.2161 8.43262 6.06389 8.43262H5.03506C4.88149 8.43262 4.75781 8.55347 4.75781 8.70353V14.8828V14.8881C4.75781 15.0382 4.88149 15.159 5.03506 15.159H9.10822H9.10958Z" fill="#00A75B"/>
<path d="M11.5625 8.43359H10.5351C10.3819 8.43359 10.2578 8.55489 10.2578 8.70451V14.8878C10.2578 15.0374 10.3819 15.1587 10.5351 15.1587H11.5625C11.7156 15.1587 11.8398 15.0374 11.8398 14.8878V8.70451C11.8398 8.55489 11.7156 8.43359 11.5625 8.43359Z" fill="#00A75B"/>
<path d="M18.5621 8.43359H17.5333C17.3797 8.43359 17.256 8.55444 17.256 8.70451V12.3765L14.3612 8.55577C14.3544 8.54648 14.3462 8.53718 14.3394 8.52788C14.3394 8.52788 14.3394 8.52788 14.3381 8.52656C14.3326 8.52124 14.3272 8.5146 14.3218 8.50929C14.3204 8.50796 14.3177 8.50664 14.3163 8.50531C14.3109 8.50132 14.3068 8.49734 14.3014 8.49335C14.2986 8.49203 14.2959 8.48937 14.2932 8.48804C14.2891 8.48406 14.2837 8.4814 14.2783 8.47875C14.2755 8.47742 14.2728 8.47476 14.2701 8.47343C14.2647 8.47078 14.2606 8.46812 14.2552 8.46547C14.2524 8.46414 14.2497 8.46281 14.247 8.46148C14.2416 8.45883 14.2361 8.45617 14.2307 8.45484C14.228 8.45484 14.2253 8.45219 14.2212 8.45219C14.2157 8.45086 14.2103 8.4482 14.2049 8.44687C14.2022 8.44687 14.1981 8.44555 14.1954 8.44422C14.1899 8.44422 14.1845 8.44156 14.179 8.44023C14.175 8.44023 14.1709 8.44023 14.1668 8.43891C14.1614 8.43891 14.1573 8.43758 14.1519 8.43758C14.1464 8.43758 14.1424 8.43758 14.1369 8.43758C14.1342 8.43758 14.1301 8.43758 14.1274 8.43758H13.1054C12.9532 8.43758 12.8281 8.55843 12.8281 8.70849V14.8918C12.8281 15.0405 12.9518 15.1627 13.1054 15.1627H14.1342C14.2878 15.1627 14.4114 15.0418 14.4114 14.8918V11.2198L17.3104 15.0458C17.3307 15.0737 17.3552 15.0963 17.3824 15.1135C17.3824 15.1135 17.3851 15.1149 17.3851 15.1162C17.3905 15.1202 17.396 15.1228 17.4028 15.1268C17.4055 15.1281 17.4082 15.1295 17.4109 15.1308C17.415 15.1335 17.4204 15.1348 17.4245 15.1374C17.4286 15.1401 17.434 15.1414 17.4381 15.1428C17.4408 15.1428 17.4436 15.1454 17.4463 15.1454C17.4531 15.1481 17.4585 15.1494 17.4653 15.1507C17.4653 15.1507 17.468 15.1507 17.4694 15.1507C17.4925 15.156 17.5169 15.16 17.5414 15.16H18.5634C18.7157 15.16 18.8407 15.0392 18.8407 14.8891V8.70584C18.8407 8.5571 18.717 8.43492 18.5634 8.43492L18.5621 8.43359Z" fill="#00A75B"/>
</g>
<defs>
<clipPath id="clip0_3916_1058">
<rect width="29" height="27" fill="white"/>
</clipPath>
</defs>
</svg>
