<svg width="40" height="40" viewBox="0 0 40 40" fill="none" xmlns="http://www.w3.org/2000/svg">
<path d="M37.4473 5.16211C38.857 5.16236 39.9998 6.30512 40 7.71484V28.9922C39.9998 30.402 38.857 31.5447 37.4473 31.5449H15.0381L10.9463 38.8096C10.6247 39.3803 9.80622 39.389 9.47266 38.8252L5.16602 31.5449H2.55273C1.14295 31.5447 0.000157489 30.402 0 28.9922V7.71484C0.000246504 6.30512 1.14301 5.16236 2.55273 5.16211H37.4473Z" fill="#C9AAD5"/>
<path d="M37.4473 3C38.857 3.00025 39.9998 4.14301 40 5.55273V26.8301C39.9998 28.2399 38.857 29.3826 37.4473 29.3828H14.4297L10.9463 35.5664C10.6247 36.1371 9.80623 36.1458 9.47266 35.582L5.80566 29.3828H2.55273C1.14295 29.3826 0.000157489 28.2399 0 26.8301V5.55273C0.000246504 4.14301 1.14301 3.00025 2.55273 3H37.4473Z" fill="white"/>
<path d="M33.0557 14.7008C32.7017 14.3196 32.3567 14.0654 32.0208 13.9383C31.694 13.8112 31.3627 13.7477 31.0268 13.7477C30.5275 13.7477 30.0736 13.8384 29.6651 14.02C29.2657 14.1925 28.9207 14.4376 28.6302 14.7553C28.3397 15.064 28.1128 15.4271 27.9493 15.8447C27.795 16.2623 27.7179 16.7116 27.7179 17.1928C27.7179 17.7102 27.795 18.1868 27.9493 18.6225C28.1128 19.0583 28.3397 19.435 28.6302 19.7528C28.9207 20.0705 29.2657 20.3201 29.6651 20.5017C30.0736 20.6833 30.5275 20.774 31.0268 20.774C31.4171 20.774 31.7939 20.6833 32.157 20.5017C32.5292 20.3111 32.8742 20.0115 33.1919 19.603L34.6081 20.6106C34.1723 21.2098 33.6413 21.6455 33.0149 21.9179C32.3885 22.1902 31.7213 22.3264 31.0132 22.3264C30.2688 22.3264 29.5834 22.2084 28.957 21.9723C28.3397 21.7272 27.8041 21.3868 27.3502 20.9511C26.9054 20.5062 26.5559 19.9752 26.3017 19.3579C26.0475 18.7406 25.9204 18.0552 25.9204 17.3017C25.9204 16.5301 26.0475 15.8311 26.3017 15.2047C26.5559 14.5692 26.9054 14.0291 27.3502 13.5842C27.8041 13.1394 28.3397 12.799 28.957 12.563C29.5834 12.3179 30.2688 12.1953 31.0132 12.1953C31.6668 12.1953 32.2705 12.3133 32.8242 12.5494C33.3871 12.7763 33.9091 13.1667 34.3902 13.7204L33.0557 14.7008Z" fill="#AA68AA"/>
<path d="M16.791 12.4404H20.5493C20.9124 12.4404 21.271 12.4858 21.6251 12.5766C21.9791 12.6583 22.2923 12.799 22.5646 12.9987C22.8461 13.1894 23.073 13.439 23.2455 13.7477C23.418 14.0563 23.5042 14.4285 23.5042 14.8643C23.5042 15.4089 23.3499 15.8583 23.0412 16.2123C22.7326 16.5664 22.3286 16.8206 21.8293 16.9749V17.0021C22.1289 17.0384 22.4058 17.1247 22.66 17.2609C22.9232 17.3879 23.1456 17.5559 23.3272 17.7647C23.5087 17.9644 23.6495 18.2004 23.7493 18.4728C23.8583 18.736 23.9127 19.022 23.9127 19.3306C23.9127 19.8572 23.8083 20.2975 23.5995 20.6515C23.3907 20.9965 23.1139 21.2779 22.7689 21.4958C22.433 21.7045 22.0426 21.8543 21.5978 21.9451C21.1621 22.0359 20.7173 22.0813 20.2634 22.0813H16.791V12.4404ZM18.5068 16.3621H20.0727C20.6446 16.3621 21.0713 16.2532 21.3527 16.0353C21.6432 15.8084 21.7885 15.5133 21.7885 15.1502C21.7885 14.7326 21.6387 14.424 21.3391 14.2243C21.0486 14.0155 20.5765 13.9111 19.9229 13.9111H18.5068V16.3621ZM18.5068 20.6106H20.0863C20.3042 20.6106 20.5357 20.597 20.7808 20.5698C21.035 20.5426 21.2665 20.479 21.4753 20.3792C21.6841 20.2793 21.8565 20.1386 21.9927 19.957C22.1289 19.7664 22.197 19.5122 22.197 19.1945C22.197 18.6861 22.029 18.3321 21.6931 18.1323C21.3663 17.9326 20.8534 17.8328 20.1544 17.8328H18.5068V20.6106Z" fill="#AA68AA"/>
<path d="M9.26509 12.4404H10.7493L14.9025 22.0813H12.9417L12.043 19.8753H7.86253L6.99105 22.0813H5.07104L9.26509 12.4404ZM11.4438 18.4047L9.95956 14.483L8.44807 18.4047H11.4438Z" fill="#AA68AA"/>
</svg>
