<svg width="34" height="34" viewBox="0 0 34 34" fill="none" xmlns="http://www.w3.org/2000/svg">
<g clip-path="url(#clip0_4027_3722)">
<path d="M26.3351 0H7.66488C3.43168 0 0 3.43168 0 7.66488V26.3351C0 30.5683 3.43168 34 7.66488 34H26.3351C30.5683 34 34 30.5683 34 26.3351V7.66488C34 3.43168 30.5683 0 26.3351 0Z" fill="#06C755"/>
<path d="M28.3279 15.3974C28.3279 10.325 23.2428 6.19824 16.9921 6.19824C10.7414 6.19824 5.65625 10.325 5.65625 15.3974C5.65625 19.9449 9.6895 23.7529 15.1369 24.4732C15.5056 24.5529 16.0082 24.7166 16.1357 25.0321C16.2504 25.319 16.2101 25.7674 16.1729 26.0574C16.1729 26.0574 16.0401 26.8575 16.0114 27.0275C15.9614 27.3144 15.784 28.1484 16.9931 27.6384C18.2033 27.1284 23.5211 23.7943 25.899 21.0573C27.5416 19.2553 28.3289 17.4278 28.3289 15.3974H28.3279Z" fill="white"/>
<path d="M24.5573 18.3268H21.373C21.2529 18.3268 21.1562 18.2301 21.1562 18.11V18.1069V13.1684V13.163C21.1562 13.043 21.2529 12.9463 21.373 12.9463H24.5573C24.6763 12.9463 24.7741 13.044 24.7741 13.163V13.9674C24.7741 14.0874 24.6774 14.1841 24.5573 14.1841H22.393V15.0192H24.5573C24.6763 15.0192 24.7741 15.117 24.7741 15.236V16.0403C24.7741 16.1604 24.6774 16.257 24.5573 16.257H22.393V17.0922H24.5573C24.6763 17.0922 24.7741 17.1899 24.7741 17.3089V18.1132C24.7741 18.2333 24.6774 18.33 24.5573 18.33V18.3268Z" fill="#06C755"/>
<path d="M12.7771 18.3269C12.8961 18.3269 12.9939 18.2302 12.9939 18.1101V17.3058C12.9939 17.1868 12.8961 17.0891 12.7771 17.0891H10.6128V13.1621C10.6128 13.0431 10.5151 12.9453 10.3961 12.9453H9.59175C9.47169 12.9453 9.375 13.042 9.375 13.1621V18.1059V18.1101C9.375 18.2302 9.47169 18.3269 9.59175 18.3269H12.7761H12.7771Z" fill="#06C755"/>
<path d="M14.6997 12.9463H13.8964C13.7767 12.9463 13.6797 13.0433 13.6797 13.163V18.11C13.6797 18.2297 13.7767 18.3268 13.8964 18.3268H14.6997C14.8194 18.3268 14.9164 18.2297 14.9164 18.11V13.163C14.9164 13.0433 14.8194 12.9463 14.6997 12.9463Z" fill="#06C755"/>
<path d="M20.1702 12.9463H19.3659C19.2458 12.9463 19.1491 13.043 19.1491 13.163V16.1009L16.886 13.044C16.8807 13.0366 16.8743 13.0292 16.869 13.0217C16.869 13.0217 16.869 13.0217 16.8679 13.0207C16.8637 13.0164 16.8594 13.0111 16.8552 13.0069C16.8541 13.0058 16.852 13.0047 16.8509 13.0037C16.8467 13.0005 16.8435 12.9973 16.8393 12.9941C16.8371 12.993 16.835 12.9909 16.8329 12.9899C16.8297 12.9867 16.8254 12.9845 16.8212 12.9824C16.8191 12.9814 16.8169 12.9792 16.8148 12.9782C16.8106 12.976 16.8074 12.9739 16.8031 12.9718C16.801 12.9707 16.7989 12.9697 16.7968 12.9686C16.7925 12.9665 16.7883 12.9644 16.784 12.9633C16.7819 12.9633 16.7797 12.9612 16.7766 12.9612C16.7723 12.9601 16.7681 12.958 16.7638 12.9569C16.7617 12.9569 16.7585 12.9559 16.7564 12.9548C16.7521 12.9548 16.7479 12.9527 16.7436 12.9516C16.7404 12.9516 16.7373 12.9516 16.7341 12.9505C16.7298 12.9505 16.7266 12.9495 16.7224 12.9495C16.7181 12.9495 16.7149 12.9495 16.7107 12.9495C16.7086 12.9495 16.7054 12.9495 16.7033 12.9495H15.9043C15.7853 12.9495 15.6875 13.0462 15.6875 13.1662V18.1132C15.6875 18.2322 15.7842 18.33 15.9043 18.33H16.7086C16.8286 18.33 16.9253 18.2333 16.9253 18.1132V15.1754L19.1916 18.2365C19.2076 18.2588 19.2267 18.2769 19.2479 18.2907C19.2479 18.2907 19.2501 18.2917 19.2501 18.2928C19.2543 18.296 19.2586 18.2981 19.2639 18.3013C19.266 18.3024 19.2681 18.3034 19.2703 18.3045C19.2734 18.3066 19.2777 18.3077 19.2809 18.3098C19.2841 18.3119 19.2883 18.313 19.2915 18.314C19.2936 18.314 19.2958 18.3162 19.2979 18.3162C19.3032 18.3183 19.3074 18.3194 19.3128 18.3204C19.3128 18.3204 19.3149 18.3204 19.3159 18.3204C19.334 18.3247 19.3531 18.3279 19.3723 18.3279H20.1713C20.2903 18.3279 20.388 18.2312 20.388 18.1111V13.1641C20.388 13.0451 20.2913 12.9474 20.1713 12.9474L20.1702 12.9463Z" fill="#06C755"/>
</g>
<defs>
<clipPath id="clip0_4027_3722">
<rect width="34" height="34" fill="white"/>
</clipPath>
</defs>
</svg>
