<svg width="40" height="40" viewBox="0 0 40 40" fill="none" xmlns="http://www.w3.org/2000/svg">
<path d="M37.4473 4.16211C38.857 4.16236 39.9998 5.30512 40 6.71484V27.9922C39.9998 29.402 38.857 30.5447 37.4473 30.5449H15.0381L10.9463 37.8096C10.6247 38.3803 9.80622 38.389 9.47266 37.8252L5.16602 30.5449H2.55273C1.14295 30.5447 0.000157489 29.402 0 27.9922V6.71484C0.000246504 5.30512 1.14301 4.16236 2.55273 4.16211H37.4473Z" fill="#C9AAD5"/>
<path d="M37.4473 2C38.857 2.00025 39.9998 3.14301 40 4.55273V25.8301C39.9998 27.2399 38.857 28.3826 37.4473 28.3828H14.4297L10.9463 34.5664C10.6247 35.1371 9.80623 35.1458 9.47266 34.582L5.80566 28.3828H2.55273C1.14295 28.3826 0.000157489 27.2399 0 25.8301V4.55273C0.000246504 3.14301 1.14301 2.00025 2.55273 2H37.4473Z" fill="white"/>
<path d="M9.2651 11.4402H10.7494L14.9025 21.0811H12.9417L12.043 18.8751H7.86255L6.99106 21.0811H5.07106L9.2651 11.4402ZM11.4438 17.4045L9.95957 13.4828L8.44808 17.4045H11.4438ZM16.791 11.4402H20.5492C20.9124 11.4402 21.271 11.4856 21.625 11.5764C21.979 11.6581 22.2922 11.7988 22.5646 11.9985C22.846 12.1891 23.0729 12.4388 23.2454 12.7474C23.4179 13.0561 23.5041 13.4283 23.5041 13.864C23.5041 14.4087 23.3498 14.8581 23.0412 15.2121C22.7325 15.5662 22.3285 15.8203 21.8292 15.9747V16.0019C22.1288 16.0382 22.4057 16.1245 22.6599 16.2606C22.9232 16.3877 23.1456 16.5557 23.3271 16.7645C23.5087 16.9642 23.6494 17.2002 23.7492 17.4725C23.8582 17.7358 23.9127 18.0218 23.9127 18.3304C23.9127 18.8569 23.8083 19.2972 23.5995 19.6513C23.3907 19.9962 23.1138 20.2777 22.7688 20.4955C22.4329 20.7043 22.0426 20.8541 21.5978 20.9449C21.162 21.0357 20.7172 21.0811 20.2633 21.0811H16.791V11.4402ZM18.5067 15.3619H20.0727C20.6446 15.3619 21.0712 15.253 21.3527 15.0351C21.6432 14.8081 21.7884 14.5131 21.7884 14.15C21.7884 13.7324 21.6386 13.4237 21.339 13.224C21.0485 13.0152 20.5765 12.9108 19.9229 12.9108H18.5067V15.3619ZM18.5067 19.6104H20.0863C20.3041 19.6104 20.5356 19.5968 20.7807 19.5696C21.0349 19.5423 21.2664 19.4788 21.4752 19.3789C21.684 19.2791 21.8565 19.1384 21.9927 18.9568C22.1288 18.7662 22.1969 18.512 22.1969 18.1942C22.1969 17.6859 22.029 17.3318 21.6931 17.1321C21.3663 16.9324 20.8534 16.8325 20.1544 16.8325H18.5067V19.6104ZM33.0556 13.7006C32.7016 13.3194 32.3566 13.0652 32.0207 12.9381C31.6939 12.811 31.3626 12.7474 31.0267 12.7474C30.5274 12.7474 30.0735 12.8382 29.665 13.0198C29.2656 13.1923 28.9206 13.4374 28.6301 13.7551C28.3396 14.0637 28.1127 14.4269 27.9492 14.8445C27.7949 15.262 27.7178 15.7114 27.7178 16.1925C27.7178 16.71 27.7949 17.1866 27.9492 17.6223C28.1127 18.0581 28.3396 18.4348 28.6301 18.7525C28.9206 19.0703 29.2656 19.3199 29.665 19.5015C30.0735 19.683 30.5274 19.7738 31.0267 19.7738C31.4171 19.7738 31.7938 19.683 32.1569 19.5015C32.5291 19.3108 32.8741 19.0113 33.1918 18.6028L34.608 19.6104C34.1722 20.2096 33.6412 20.6453 33.0148 20.9177C32.3884 21.19 31.7212 21.3262 31.0131 21.3262C30.2687 21.3262 29.5833 21.2081 28.9569 20.9721C28.3396 20.727 27.804 20.3866 27.3501 19.9508C26.9053 19.506 26.5558 18.975 26.3016 18.3577C26.0474 17.7403 25.9203 17.055 25.9203 16.3015C25.9203 15.5298 26.0474 14.8308 26.3016 14.2045C26.5558 13.569 26.9053 13.0289 27.3501 12.584C27.804 12.1392 28.3396 11.7988 28.9569 11.5628C29.5833 11.3176 30.2687 11.1951 31.0131 11.1951C31.6667 11.1951 32.2704 11.3131 32.8241 11.5491C33.387 11.7761 33.909 12.1664 34.3901 12.7202L33.0556 13.7006Z" fill="#AA68AA"/>
</svg>
