<svg width="33" height="34" viewBox="0 0 33 34" fill="none" xmlns="http://www.w3.org/2000/svg">
<path d="M6.44412 0.796875H27.9293C28.5015 0.796875 28.9662 1.26151 28.9662 1.83371V31.1431C28.9662 31.7153 28.5015 32.1799 27.9293 32.1799H6.44412C4.38363 32.1799 2.71094 30.5072 2.71094 28.4467V4.53006C2.71094 2.46956 4.38363 0.796875 6.44412 0.796875Z" fill="#005C3F"/>
<path d="M28.6494 0.796875H7.82494V24.9089L6.06152 25.8953C6.61762 27.0265 5.61225 26.8377 7.17519 26.8377H28.6487C29.2216 26.8377 29.6855 26.4521 29.6855 25.9772V1.65737C29.6855 1.18175 29.2209 0.796875 28.6487 0.796875H28.6494Z" fill="#128661"/>
<path d="M29.1916 26.4253H5.28516V32.1809H29.1916V26.4253Z" fill="#D5E6E0"/>
<path d="M28.0949 31.0096C28.0671 31.0111 28.04 31.014 28.0115 31.014H7.30996C6.46849 31.014 5.78434 30.3299 5.78434 29.4884V28.7172C5.78434 27.8757 6.46849 27.1916 7.30996 27.1916H28.0115C28.0393 27.1916 28.0671 27.1945 28.0949 27.196V24.8523C28.0671 24.8523 28.0393 24.8501 28.0115 24.8501H7.30996C5.17776 24.8501 3.44287 26.585 3.44287 28.7172V29.4884C3.44287 31.6206 5.17776 33.3555 7.30996 33.3555H28.0115C28.0393 33.3555 28.0671 33.354 28.0949 33.3533V31.0096Z" fill="#1F654F"/>
<path d="M28.106 24.8516H29.6982V26.3713C29.6982 26.8294 29.3265 27.2011 28.8684 27.2011H28.106V24.8516Z" fill="#1F654F"/>
<path d="M28.106 31.0059H28.8684C29.3265 31.0059 29.6982 31.3776 29.6982 31.8356V32.5256C29.6982 32.9837 29.3265 33.3554 28.8684 33.3554H28.106V31.0059Z" fill="#1F654F"/>
<path d="M15 8.46639C15 8.46639 15.2217 9.38103 15.319 9.38103C15.4163 9.38103 15.4346 9.38103 15.6424 9.38103C15.8502 9.38103 16.2424 9.15932 16.4656 9.19518C16.6434 9.22371 16.9822 9.31225 16.9822 9.61737C16.9822 9.9225 15.7763 14.1496 15.7763 14.1496C15.7763 14.1496 15.4434 15.272 16.3171 16.1318C17.1907 16.9915 19.0749 16.6089 19.0749 16.6089C19.0749 16.6089 20.7103 16.0352 20.7381 15.7996C20.7659 15.564 20.5859 14.5659 20.2947 14.5798C20.0034 14.5937 19.4356 14.9267 19.241 14.885C19.0464 14.8432 18.6586 14.6076 18.6725 14.2615C18.6864 13.9154 19.8783 10.2283 19.8783 10.2283C19.8783 10.2283 20.3964 8.9603 19.3654 8.08005C18.7946 7.59346 16.2468 6.88809 15 8.46786V8.46639Z" fill="white"/>
<path d="M18.8548 5.97337C19.6231 5.97337 20.2458 5.3506 20.2458 4.58239C20.2458 3.81417 19.6231 3.19141 18.8548 3.19141C18.0866 3.19141 17.4639 3.81417 17.4639 4.58239C17.4639 5.3506 18.0866 5.97337 18.8548 5.97337Z" fill="white"/>
<path fill-rule="evenodd" clip-rule="evenodd" d="M11.6626 18.9021C11.6626 18.6395 11.8755 18.4265 12.1382 18.4265H22.7341C22.9968 18.4265 23.2097 18.6395 23.2097 18.9021C23.2097 19.1648 22.9968 19.3777 22.7341 19.3777H12.1382C11.8755 19.3777 11.6626 19.1648 11.6626 18.9021Z" fill="white"/>
<path fill-rule="evenodd" clip-rule="evenodd" d="M13.9619 21.7346C13.9619 21.472 14.1749 21.259 14.4375 21.259H20.4332C20.6958 21.259 20.9088 21.472 20.9088 21.7346C20.9088 21.9973 20.6958 22.2103 20.4332 22.2103H14.4375C14.1749 22.2103 13.9619 21.9973 13.9619 21.7346Z" fill="white"/>
</svg>
