<svg width="39" height="40" viewBox="0 0 39 40" fill="none" xmlns="http://www.w3.org/2000/svg">
<g clip-path="url(#clip0_6785_23466)">
<path d="M24.0236 2.46094H14.5679V8.58493H24.0236V2.46094Z" fill="#D9E8E7"/>
<path d="M23.0863 0H15.5047C14.1455 0 13.0437 1.10181 13.0437 2.46096C13.0437 3.8201 14.1455 4.92191 15.5047 4.92191H23.0863C24.4454 4.92191 25.5473 3.8201 25.5473 2.46096C25.5473 1.10181 24.4454 0 23.0863 0Z" fill="#B7BCBB"/>
<path d="M24.4684 8.85028C21.5815 3.85264 16.8584 3.85264 13.9715 8.85028L6.46558 21.846H31.9649L24.459 8.85028H24.4684Z" fill="#D9E8E7"/>
<path d="M6.48443 40H31.9553C37.7291 40 40.0954 35.911 37.2085 30.9039L31.9743 21.8457H6.4655L1.23123 30.9039C-1.65566 35.9015 0.710646 40 6.48443 40Z" fill="#5CCCA7"/>
<path d="M10.8762 35.1821C12.6013 35.1821 13.9997 33.7837 13.9997 32.0586C13.9997 30.3335 12.6013 28.9351 10.8762 28.9351C9.15113 28.9351 7.75269 30.3335 7.75269 32.0586C7.75269 33.7837 9.15113 35.1821 10.8762 35.1821Z" fill="#F4F5F7"/>
<path d="M16.4134 28.5852C17.4694 28.5852 18.3254 27.7292 18.3254 26.6732C18.3254 25.6173 17.4694 24.7612 16.4134 24.7612C15.3575 24.7612 14.5015 25.6173 14.5015 26.6732C14.5015 27.7292 15.3575 28.5852 16.4134 28.5852Z" fill="#F4F5F7"/>
</g>
<defs>
<clipPath id="clip0_6785_23466">
<rect width="38.4398" height="40" fill="white"/>
</clipPath>
</defs>
</svg>
