<?xml version="1.0" encoding="UTF-8"?>
<svg id="_レイヤー_2" data-name="レイヤー_2" xmlns="http://www.w3.org/2000/svg" viewBox="0 0 78.8 78.8">
  <defs>
    <style>
      .cls-1 {
        fill: #eeedee;
        stroke: #00573c;
        stroke-width: 2px;
      }

      .cls-1, .cls-2 {
        stroke-miterlimit: 10;
      }

      .cls-2 {
        fill: #fff;
        stroke: #00583c;
        stroke-width: 1.78px;
      }
    </style>
  </defs>
  <g id="_レイヤー_1-2" data-name="レイヤー_1">
    <circle class="cls-1" cx="39.4" cy="39.4" r="38.4"/>
    <path class="cls-2" d="M58.5,18.07v36.04c0,.5-.4.9-.9.9H17.71c-.5,0-.9-.4-.9-.9v-7.66c0-.5.4-.9.9-.9h8.62c.5,0,.9-.4.9-.9v-7.66c0-.5.4-.9.9-.9h8.63c.5,0,.9-.4.9-.9v-7.66c0-.5.4-.9.9-.9h8.62c.5,0,.9-.4.9-.9v-7.65c0-.5.4-.9.9-.9h8.62c.5,0,.9.4.9.9Z"/>
  </g>
</svg>