<svg width="89" height="87" viewBox="0 0 89 87" fill="none" xmlns="http://www.w3.org/2000/svg">
<g clip-path="url(#clip0_6946_24673)">
<path d="M35.7941 72.256H51.9187L53.7246 86.6347H34.1172L35.7941 72.256Z" fill="#BECCD2"/>
<path d="M0.941406 68.0007H84.9977V68.9451C84.9977 71.5532 82.8835 73.6674 80.2755 73.6674H5.66367C3.05564 73.6674 0.941406 71.5532 0.941406 68.9451V68.0007Z" fill="#D5E9F1"/>
<path d="M0.941406 24.5558C0.941406 22.4694 2.63279 20.778 4.71922 20.778H81.2199C83.3063 20.778 84.9977 22.4694 84.9977 24.5558V68.0007H0.941406V24.5558Z" fill="#60899B"/>
<rect x="4.72266" y="24.5558" width="76.5007" height="39.667" rx="1.88891" fill="white"/>
<g clip-path="url(#clip1_6946_24673)">
<path d="M35.9015 1.42538C33.4316 1.2193 32.5764 0.23359 31.5296 0.0412559C30.4828 -0.151078 25.5738 0.23359 25.4301 4.63323C25.2865 9.03288 28.7347 12.6048 29.395 12.8761L49.568 28.4552C49.568 28.4552 55.8317 21.6239 55.5922 14.2293C55.3527 6.83477 53.7826 6.49819 51.1143 5.54339C50.0196 2.57595 47.6352 0.56674 45.2064 0.56674C42.7775 0.56674 39.3361 1.71388 35.9049 1.42538H35.9015Z" fill="#3E6598"/>
<path d="M49.498 24.818C52.269 24.9692 54.7389 21.8128 52.9429 19.443C51.1469 17.0731 48.7523 19.1407 48.6018 19.4808C48.4512 19.8208 47.9655 20.4562 47.3668 20.3463C46.7681 20.2364 46.9563 17.8287 47.141 16.74C47.3257 15.6512 46.9905 11.9282 45.3074 11.2344C43.6243 10.5407 40.1795 11.7771 39.0027 11.8217C37.8259 11.8664 31.056 11.796 28.9624 10.7039C28.9624 10.7039 27.6663 16.7572 27.7039 23.2966C27.7416 29.8359 31.4973 35.3071 40.4053 34.2527L40.2924 35.7193L43.6243 38.6489L49.6896 34.8538L49.5015 24.8215L49.498 24.818Z" fill="#F5C9AE"/>
<path d="M40.1354 19.8335C40.9178 19.8335 41.5521 19.1993 41.5521 18.4169C41.5521 17.6345 40.9178 17.0002 40.1354 17.0002C39.353 17.0002 38.7188 17.6345 38.7188 18.4169C38.7188 19.1993 39.353 19.8335 40.1354 19.8335Z" fill="black"/>
<path d="M31.6393 19.8335C32.4217 19.8335 33.056 19.1993 33.056 18.4169C33.056 17.6345 32.4217 17.0002 31.6393 17.0002C30.8569 17.0002 30.2227 17.6345 30.2227 18.4169C30.2227 19.1993 30.8569 19.8335 31.6393 19.8335Z" fill="black"/>
<path d="M35.3984 19.5559L35.7129 19.6936L35.9277 19.7874L35.835 20.0032C35.6251 20.4914 35.2453 21.3938 34.9102 22.2307C34.7426 22.6492 34.5867 23.0497 34.4697 23.3733C34.4112 23.535 34.3632 23.6762 34.3281 23.7893C34.2916 23.9072 34.273 23.9819 34.2686 24.0168V24.0198C34.2674 24.028 34.2633 24.0507 34.3096 24.1038L34.3896 24.175C34.4862 24.246 34.6324 24.3151 34.8291 24.3694C35.0856 24.4401 35.4038 24.4784 35.751 24.4719L35.9863 24.468L35.9912 24.7034L35.998 25.0471L36.0029 25.2874H35.7646L35.7607 25.2913H35.6631C35.2406 25.2913 34.8481 25.2378 34.5146 25.1331C34.1836 25.0291 33.8955 24.8694 33.7002 24.6477V24.6467C33.5132 24.4364 33.4251 24.1821 33.458 23.9133V23.9114C33.4818 23.7318 33.5937 23.3928 33.7334 23.01C33.8772 22.6161 34.063 22.145 34.25 21.6829C34.6243 20.7579 35.0078 19.8619 35.0869 19.679L35.1807 19.4612L35.3984 19.5559Z" fill="#EA9D86" stroke="#EA9D86" stroke-width="0.472227"/>
<path d="M33.6562 27.9606C34.5491 27.5656 37.4671 26.7619 41.1685 27.0951C40.912 28.7333 39.6702 30.193 37.4124 30.5708C35.1546 30.9486 33.6562 27.9606 33.6562 27.9606Z" fill="#FDFDFD"/>
<path d="M40.2937 35.7158L37.1943 38.1749C37.1943 38.1749 31.7106 38.6523 29.6786 41.1664C27.6466 43.6805 18.1673 57.7553 18.1673 57.7553L11.2605 38.6489L3.54297 41.3038L11.8729 66.3897C11.8729 66.3897 13.0907 69.3812 17.1547 69.3812C21.2188 69.3812 29.4768 58.5727 29.4768 58.5727L28.8679 71.7613H68.0064L64.6197 45.1127C63.4703 40.2872 58.7973 38.9202 57.1724 38.6523C55.5475 38.3845 52.0924 37.907 52.0924 37.907L49.6909 34.8572L40.2971 35.7227L40.2937 35.7158Z" fill="#8FBBDE"/>
<path d="M40.1624 43.7904L37.0117 38.2745L37.3675 38.0719L40.2137 43.0486L43.573 38.6249L47.206 43.1001L51.9337 37.7662L52.2416 38.0376L47.1923 43.7389L43.5833 39.2912L40.1624 43.7904Z" fill="#3E6598"/>
<path d="M56.3744 51.2988L56.0352 51.3427L58.6579 71.7844L58.9971 71.7405L56.3744 51.2988Z" fill="#3E6598"/>
<path d="M29.6091 51.1126L29.3047 58.5593L29.6465 58.5733L29.9509 51.1267L29.6091 51.1126Z" fill="#3E6598"/>
<path d="M41.0587 41.9667L42.256 43.7389L39.8477 68.7939L41.5205 71.4454H45.3621L47.5276 68.7939L45.0337 43.4951L45.9745 41.9667L43.5799 38.6455L41.0587 41.9667Z" fill="#E6F3F9"/>
<path d="M9.65081 39.1984C9.65081 39.1984 10.7352 37.0999 10.7352 35.8944C10.7352 34.6889 12.1036 32.2057 11.9394 31.8004C11.7752 31.3952 10.8686 30.9281 10.335 31.8004C9.80133 32.6728 9.33267 34.0157 8.99742 33.7787C8.66217 33.5417 7.1604 26.4666 6.62674 26.5009C6.09308 26.5353 5.75783 26.5696 5.85703 27.2394C5.95624 27.9091 6.52411 31.4982 6.52411 31.4982L4.18421 26.6349C4.18421 26.6349 3.71555 25.8965 3.2811 26.13C2.84664 26.3636 3.5274 28.1083 3.5274 28.1083L4.48183 31.9653L2.30956 28.2766C2.30956 28.2766 1.94353 27.5382 1.40644 27.6721C0.869364 27.8061 1.40644 29.6161 1.40644 29.6161L2.57639 32.6385C2.57639 32.6385 1.46802 31.1891 1.04383 30.7529C0.859101 30.5606 0.24676 30.066 0.0688736 30.3236C-0.505837 31.1582 2.03931 35.2212 2.03931 35.2212C2.03931 35.2212 2.61402 39.5384 4.78287 40.8676L9.64055 39.1984H9.65081Z" fill="#F8CCB1"/>
<path d="M6.27401 38.3741C6.12007 38.3329 6.04481 38.3123 6.16455 36.5264C6.29796 34.5206 8.50102 33.7375 8.5968 33.7066L8.70627 34.0329C8.68575 34.0398 6.62295 34.7747 6.50663 36.5504C6.41769 37.8796 6.45874 38.0994 6.46558 38.1303C6.45874 38.1028 6.41427 38.0444 6.33559 38.0376L6.32191 38.1921L6.48611 38.2745L6.27401 38.3741Z" fill="#E8814D"/>
<mask id="path-18-inside-1_6946_24673" fill="white">
<path d="M12.4859 42.056L4.76172 45.008L4.88342 45.329L12.6076 42.3769L12.4859 42.056Z"/>
</mask>
<path d="M12.4859 42.056L4.76172 45.008L4.88342 45.329L12.6076 42.3769L12.4859 42.056Z" fill="#3E6598"/>
<path d="M4.76172 45.008L4.42689 44.1249L3.54467 44.4621L3.8795 45.3452L4.76172 45.008ZM12.4859 42.056L13.3681 41.7188L13.0333 40.8357L12.1511 41.1729L12.4859 42.056ZM12.6076 42.3769L12.9424 43.2601L13.8247 42.9229L13.4898 42.0398L12.6076 42.3769ZM4.88342 45.329L4.0012 45.6661L4.33603 46.5493L5.21825 46.2121L4.88342 45.329ZM4.76172 45.008L5.09655 45.8911L12.8207 42.9391L12.4859 42.056L12.1511 41.1729L4.42689 44.1249L4.76172 45.008ZM12.4859 42.056L11.6037 42.3931L11.7254 42.7141L12.6076 42.3769L13.4898 42.0398L13.3681 41.7188L12.4859 42.056ZM12.6076 42.3769L12.2728 41.4938L4.54859 44.4459L4.88342 45.329L5.21825 46.2121L12.9424 43.2601L12.6076 42.3769ZM4.88342 45.329L5.76564 44.9918L5.64394 44.6708L4.76172 45.008L3.8795 45.3452L4.0012 45.6661L4.88342 45.329Z" fill="black" mask="url(#path-18-inside-1_6946_24673)"/>
<path d="M5.33442 43.0451C5.61404 43.0451 5.84071 42.8175 5.84071 42.5368C5.84071 42.2561 5.61404 42.0285 5.33442 42.0285C5.0548 42.0285 4.82812 42.2561 4.82812 42.5368C4.82812 42.8175 5.0548 43.0451 5.33442 43.0451Z" fill="#3E6598"/>
<path d="M40.402 34.2492C41.2674 34.445 45.0236 33.607 46.368 32.5835C46.368 32.5835 45.6086 34.6202 43.5047 35.4204C41.4009 36.2207 40.2891 35.7158 40.2891 35.7158L40.402 34.2492Z" fill="#EA9D86"/>
</g>
<circle cx="74.528" cy="19.2503" r="13.86" fill="#55C19F"/>
<path d="M61.2145 30.0274L63.8413 24.4717L66.2566 29.7316L61.2145 30.0274Z" fill="#55C19F"/>
<circle cx="68.5031" cy="19.2502" r="1.80783" fill="white"/>
<circle cx="74.5227" cy="19.2502" r="1.80783" fill="white"/>
<circle cx="80.55" cy="19.2502" r="1.80783" fill="white"/>
<rect x="32" y="83.8897" width="24" height="3" rx="0.944453" fill="#BECCD2"/>
</g>
<defs>
<clipPath id="clip0_6946_24673">
<rect width="88.388" height="86.8897" fill="white"/>
</clipPath>
<clipPath id="clip1_6946_24673">
<rect width="68.0006" height="64.2228" fill="white"/>
</clipPath>
</defs>
</svg>
