<svg width="131" height="72" viewBox="0 0 131 72" fill="none" xmlns="http://www.w3.org/2000/svg">
<path d="M6.80664 6.27637H115.193C118.248 6.27645 120.724 8.75234 120.724 11.8066V60.1934C120.724 63.2477 118.248 65.7235 115.193 65.7236H6.80664C3.75234 65.7235 1.27645 63.2477 1.27637 60.1934V11.8066C1.27645 8.75234 3.75234 6.27645 6.80664 6.27637Z" fill="white" stroke="#B6D43E" stroke-width="2.55255"/>
<path d="M0 11.8068C0 8.04751 3.04751 5 6.8068 5H64V67H6.8068C3.04751 67 0 63.9525 0 60.1932V11.8068Z" fill="#B6D43E"/>
<path d="M50.9883 40.3844V32.8342H55.6142V34.0977H52.4963V35.8401H55.1353V37.1035H52.4963V39.121H55.7263V40.3844H50.9883Z" fill="#F9F9F9"/>
<path d="M45.8605 40.527C45.3578 40.527 44.8653 40.4319 44.383 40.2417C43.9007 40.0516 43.4762 39.7798 43.1094 39.4266L43.9755 38.3873C44.2404 38.6386 44.5427 38.8424 44.8823 38.9987C45.2287 39.1481 45.565 39.2228 45.891 39.2228C46.285 39.2228 46.5839 39.1447 46.7877 38.9885C46.9915 38.8322 47.0934 38.6217 47.0934 38.3567C47.0934 38.1665 47.0424 38.0171 46.9405 37.9084C46.8454 37.7929 46.713 37.691 46.5431 37.6027C46.3733 37.5144 46.1763 37.4261 45.9522 37.3378L44.9536 36.8997C44.7023 36.7978 44.4577 36.6619 44.22 36.4921C43.989 36.3155 43.7954 36.0947 43.6392 35.8298C43.4898 35.5649 43.4151 35.249 43.4151 34.8822C43.4151 34.4679 43.5271 34.0976 43.7513 33.7716C43.9755 33.4455 44.2845 33.1874 44.6785 32.9972C45.0725 32.8002 45.5208 32.7017 46.0235 32.7017C46.4718 32.7017 46.9032 32.7866 47.3175 32.9565C47.7319 33.1263 48.0919 33.3674 48.3976 33.6799L47.6334 34.6173C47.3956 34.4203 47.1477 34.2675 46.8896 34.1588C46.6315 34.0501 46.3428 33.9958 46.0235 33.9958C45.6974 33.9958 45.4359 34.0671 45.2389 34.2097C45.0487 34.3456 44.9536 34.5392 44.9536 34.7905C44.9536 34.9671 45.008 35.1132 45.1167 35.2286C45.2253 35.3441 45.368 35.446 45.5446 35.5343C45.7212 35.6158 45.9148 35.7007 46.1254 35.7891L47.1137 36.1864C47.4194 36.3087 47.6843 36.4615 47.9085 36.645C48.1395 36.8284 48.3161 37.0491 48.4383 37.3073C48.5674 37.5654 48.6319 37.8778 48.6319 38.2447C48.6319 38.6522 48.5199 39.0292 48.2957 39.3757C48.0783 39.7221 47.7625 40.0006 47.3481 40.2112C46.9405 40.4218 46.4446 40.527 45.8605 40.527Z" fill="#F9F9F9"/>
<path d="M35.8672 40.3844V32.8342H38.4858C39.0225 32.8342 39.5047 32.9056 39.9327 33.0482C40.3606 33.1841 40.7003 33.4218 40.9516 33.7614C41.2029 34.0943 41.3286 34.5494 41.3286 35.1268C41.3286 35.6838 41.2029 36.1423 40.9516 36.5024C40.7003 36.8556 40.3606 37.1171 39.9327 37.2869C39.5047 37.4499 39.0225 37.5315 38.4858 37.5315H37.3752V40.3844H35.8672ZM37.3752 36.3393H38.3534C38.8424 36.3393 39.2127 36.2374 39.464 36.0336C39.7221 35.8299 39.8512 35.5276 39.8512 35.1268C39.8512 34.7192 39.7221 34.4373 39.464 34.2811C39.2127 34.1181 38.8424 34.0366 38.3534 34.0366H37.3752V36.3393ZM39.9633 40.3844L38.2107 37.1443L39.2704 36.2069L41.6547 40.3844H39.9633Z" fill="#F9F9F9"/>
<path d="M30.1298 40.5271C29.6611 40.5271 29.2467 40.4626 28.8867 40.3335C28.5267 40.1976 28.2176 39.9871 27.9595 39.7018C27.7082 39.4165 27.518 39.0497 27.3889 38.6013C27.2598 38.153 27.1953 37.6164 27.1953 36.9914V32.8342H28.6931V37.1239C28.6931 37.6469 28.7509 38.0613 28.8663 38.367C28.9818 38.6727 29.1449 38.8934 29.3554 39.0293C29.5728 39.1583 29.8309 39.2229 30.1298 39.2229C30.4287 39.2229 30.6868 39.1583 30.9042 39.0293C31.1216 38.8934 31.288 38.6727 31.4035 38.367C31.5257 38.0613 31.5869 37.6469 31.5869 37.1239V32.8342H33.0337V36.9914C33.0337 37.6164 32.9692 38.153 32.8401 38.6013C32.7111 39.0497 32.5209 39.4165 32.2695 39.7018C32.0182 39.9871 31.7125 40.1976 31.3525 40.3335C30.9925 40.4626 30.5849 40.5271 30.1298 40.5271Z" fill="#F9F9F9"/>
<path d="M21.3609 40.527C20.6952 40.527 20.1076 40.3708 19.5982 40.0583C19.0955 39.7391 18.7015 39.284 18.4162 38.693C18.1309 38.102 17.9883 37.3956 17.9883 36.5736C17.9883 35.7585 18.1309 35.0622 18.4162 34.4848C18.7015 33.9074 19.0955 33.4659 19.5982 33.1602C20.1076 32.8546 20.6952 32.7017 21.3609 32.7017C22.0334 32.7017 22.621 32.858 23.1237 33.1704C23.6263 33.4761 24.0203 33.9176 24.3056 34.495C24.5909 35.0656 24.7335 35.7585 24.7335 36.5736C24.7335 37.3956 24.5909 38.102 24.3056 38.693C24.0203 39.284 23.6263 39.7391 23.1237 40.0583C22.621 40.3708 22.0334 40.527 21.3609 40.527ZM21.3609 39.2228C21.7345 39.2228 22.0572 39.1141 22.3289 38.8968C22.6074 38.6794 22.8214 38.3737 22.9708 37.9797C23.1203 37.579 23.195 37.1103 23.195 36.5736C23.195 36.037 23.1203 35.5785 22.9708 35.1981C22.8214 34.8109 22.6074 34.5154 22.3289 34.3116C22.0572 34.101 21.7345 33.9958 21.3609 33.9958C20.9873 33.9958 20.6613 34.101 20.3827 34.3116C20.111 34.5154 19.9005 34.8109 19.751 35.1981C19.6084 35.5785 19.537 36.037 19.537 36.5736C19.537 37.1103 19.6084 37.579 19.751 37.9797C19.9005 38.3737 20.111 38.6794 20.3827 38.8968C20.6613 39.1141 20.9873 39.2228 21.3609 39.2228Z" fill="#F9F9F9"/>
<path d="M14.1705 40.527C13.695 40.527 13.2501 40.4455 12.8357 40.2825C12.4214 40.1127 12.0546 39.8614 11.7353 39.5285C11.4228 39.1957 11.1749 38.7881 10.9915 38.3058C10.8149 37.8235 10.7266 37.2699 10.7266 36.645C10.7266 36.02 10.8183 35.4664 11.0017 34.9841C11.1851 34.495 11.4364 34.0807 11.7557 33.741C12.0817 33.4014 12.4553 33.1433 12.8765 32.9666C13.3044 32.79 13.7562 32.7017 14.2317 32.7017C14.7139 32.7017 15.1419 32.8002 15.5155 32.9972C15.8959 33.1874 16.205 33.4116 16.4427 33.6697L15.6581 34.6275C15.4679 34.4373 15.2574 34.2844 15.0264 34.169C14.8023 34.0535 14.5475 33.9958 14.2622 33.9958C13.8818 33.9958 13.5388 34.101 13.2331 34.3116C12.9342 34.5154 12.6999 34.8109 12.5301 35.1981C12.3602 35.5853 12.2753 36.0506 12.2753 36.594C12.2753 37.1442 12.3534 37.6163 12.5097 38.0103C12.6727 38.3975 12.9003 38.6964 13.1924 38.907C13.4912 39.1175 13.8377 39.2228 14.2317 39.2228C14.5577 39.2228 14.8464 39.1549 15.0977 39.019C15.3559 38.8764 15.5834 38.6964 15.7804 38.479L16.5854 39.4164C16.2729 39.7832 15.9163 40.0617 15.5155 40.2519C15.1147 40.4353 14.6664 40.527 14.1705 40.527Z" fill="#F9F9F9"/>
<path d="M94.4387 22.4487H87.1328V27.1803H94.4387V22.4487Z" fill="#D9E8E7"/>
<path d="M93.7124 20.5473H87.8546C86.8044 20.5473 85.9531 21.3986 85.9531 22.4487C85.9531 23.4989 86.8044 24.3502 87.8546 24.3502H93.7124C94.7625 24.3502 95.6138 23.4989 95.6138 22.4487C95.6138 21.3986 94.7625 20.5473 93.7124 20.5473Z" fill="#B7BCBB"/>
<path d="M94.7847 27.3853C92.5542 23.524 88.9049 23.524 86.6744 27.3853L80.875 37.4263H100.577L94.7774 27.3853H94.7847Z" fill="#D9E8E7"/>
<path d="M80.8812 51.4528H100.561C105.022 51.4528 106.85 48.2935 104.62 44.4248L100.576 37.4261H80.8666L76.8224 44.4248C74.5919 48.2862 76.4202 51.4528 80.8812 51.4528Z" fill="#5CCCA7"/>
<path d="M84.8619 46.6638C86.0736 46.6638 87.0559 45.6816 87.0559 44.4699C87.0559 43.2582 86.0736 42.2759 84.8619 42.2759C83.6502 42.2759 82.668 43.2582 82.668 44.4699C82.668 45.6816 83.6502 46.6638 84.8619 46.6638Z" fill="#F4F5F7"/>
<path d="M88.7492 42.0302C89.4909 42.0302 90.0922 41.429 90.0922 40.6873C90.0922 39.9456 89.4909 39.3443 88.7492 39.3443C88.0075 39.3443 87.4062 39.9456 87.4062 40.6873C87.4062 41.429 88.0075 42.0302 88.7492 42.0302Z" fill="#F4F5F7"/>
<circle cx="119" cy="60" r="11" fill="white" stroke="#55C19F" stroke-width="2"/>
<line x1="114.768" y1="61" x2="117" y2="63.2322" stroke="#55C19F" stroke-width="2.5" stroke-linecap="round"/>
<path d="M123.734 56.964L117.502 63.1962" stroke="#55C19F" stroke-width="2.5" stroke-linecap="round"/>
</svg>
