<svg width="513" height="271" viewBox="0 0 513 271" fill="none" xmlns="http://www.w3.org/2000/svg">
<path d="M78.4982 69.7827L54.5182 112.239L49.3129 101.443L63.5637 76.2333C63.9509 75.5537 64.1254 74.7735 64.0646 73.9936C64.0038 73.2138 63.7105 72.4701 63.2227 71.8586C62.6949 71.2088 62.0276 70.6862 61.2703 70.3294C60.513 69.9727 59.6851 69.7909 58.848 69.7977H30.5537C29.7393 69.7888 28.933 69.9597 28.1922 70.2982C27.4515 70.6367 26.7945 71.1345 26.2682 71.7561C25.7714 72.3315 25.4545 73.0402 25.357 73.7942C25.2594 74.5482 25.3854 75.3142 25.7193 75.9972L37.8643 101.163L31.5916 112.254L11.2462 69.7827H0.450195L26.3569 124.874C26.8195 125.714 27.5004 126.414 28.3278 126.9C29.1552 127.385 30.0984 127.638 31.0577 127.632C33.1042 127.632 35.0321 126.668 35.9214 125.111L43.2032 112.239L49.2979 124.874C49.7604 125.714 50.4413 126.414 51.2687 126.9C52.0961 127.385 53.0393 127.638 53.9986 127.632H54.1466C55.0839 127.657 56.0115 127.438 56.8384 126.996C57.6652 126.554 58.3627 125.904 58.8624 125.111L89.975 69.7827H78.4982ZM50.5138 78.7245L43.9445 90.3361L38.3389 78.7245H50.4994H50.5138Z" fill="#005C3F"/>
<path d="M123.044 98.8479L123.489 87.207L123.518 86.5394H147.171L147.142 87.2663L147.053 89.8007C146.697 99.2321 145.867 103.74 143.969 106.454C141.359 110.102 135.62 111.6 124.172 111.6H109.253L108.882 123.42H127.864C139.475 123.42 146.949 121.774 152.11 118.067C157.967 113.826 160.177 108.027 161.2 94.1916C161.704 87.8296 162.194 77.9092 162.313 74.6611H110.395L109.473 98.8623H123.074L123.044 98.8479Z" fill="#231815"/>
<path d="M238.758 76.9745H238.016V70.8799H225.632V76.9745H195.692L195.44 86.3633H219.122L218.38 87.4456L205.258 106.515C202.144 110.696 199.667 112.044 195.055 112.044H194.803L194.358 123.73C205.465 123.7 210.107 121.579 214.956 114.446L224.313 100.449L225.767 98.2842L225.663 100.85L224.759 124.932H238.653L238.728 87.058V86.361H251.066L251.008 76.9722H238.758V76.9745Z" fill="#231815"/>
<path d="M316.805 94.2811L317.117 86.1399L317.146 85.4723H337.818L338.189 75.7592H317.516L317.546 75.0323L317.665 69.7383H304.259L304.125 75.0893L304.095 75.7569H282.652L282.281 85.47H303.725L303.695 86.1969L303.384 94.3404L303.355 95.008H282.252L281.881 104.662H298.7L297.173 105.893C292.991 109.259 288.527 111.454 281.869 113.426L281.424 125.349C288.735 123.57 296.12 119.862 301.34 115.295L302.63 114.168L302.573 115.844L302.202 127.663H315.608L315.979 115.977L316.036 114.317L317.237 115.518C321.553 119.818 328.124 123.214 336.278 125.364L336.723 113.486C329.811 111.291 326.683 109.675 321.849 105.923L320.261 104.691H337.374L337.745 95.0374H316.761L316.791 94.3104L316.805 94.2811Z" fill="#231815"/>
<path d="M483.159 83.722L483.307 79.9849H455.756L455.504 88.7493H478.059C482.286 88.7493 483.146 85.5905 483.176 83.722H483.159ZM473.298 83.3366L473.253 84.6119L473.224 85.2939H464.653L464.682 84.5669L464.726 83.2917L464.756 82.6097H473.327L473.298 83.3366Z" fill="#231815"/>
<path d="M475.967 71.1911L476.011 69.7822H465.038L464.98 71.2355L464.95 73.9196H455.873L455.71 78.428H483.797L483.96 73.9196H475.937L475.967 71.1911Z" fill="#231815"/>
<path d="M500.658 101.473L500.584 103.297C500.526 104.884 500.762 105.847 501.355 106.441C502.127 107.197 503.654 107.509 506.471 107.509C508.874 107.509 511.158 107.093 512.433 106.115L512.552 97.7806C512.448 97.825 511.884 98.0029 511.78 98.0329L510.801 98.2996L510.83 97.3359L511.602 77.017H500.094L500.124 76.2901L500.287 69.7812H490.337L490.159 76.3505L490.13 77.0325H486.599L486.287 85.263H489.816L489.787 85.9899L489.698 88.4367L489.669 89.3267L488.764 89.0893L486.17 88.4074L485.903 95.3338L486.882 95.6005L487.905 95.8821L487.267 96.6977C486.305 97.9877 484.977 98.9589 483.456 99.4856L482.388 99.9009L482.433 98.8036L482.462 98.0767L476.678 98.1343L476.337 96.7997L482.212 94.0562L482.346 90.5714H455.414L455.265 94.5308H469.68L467.589 95.8211C466.621 96.4514 465.56 96.9267 464.445 97.23L464.356 97.6602L464.253 98.2236H463.645L455.281 98.4015L455.088 103.636L463.304 103.414L464.134 103.385L464.06 104.171C463.847 105.364 463.302 106.474 462.487 107.372H473.713C474.6 106.344 475.14 105.062 475.256 103.709L475.344 103.133L475.953 103.104L482.833 102.733L483.649 102.689L483.62 103.46L483.501 106.752L483.472 107.434H477.109L477.035 109.258L477.005 109.94H454.895L454.658 116.094H476.768L476.739 116.821L476.681 118.408L476.652 119.09H454.48L454.228 127.602H512.106L512.225 119.09H489.876L489.906 118.363L489.963 116.776L489.993 116.094H512.266L512.355 109.94H490.233L490.263 109.213L490.338 107.448H486.766L489.139 106.129C492.832 104.082 494.299 102.659 495.99 99.5293L496.331 98.9067L496.998 99.2327L500.276 100.82L500.691 101.027V101.472L500.658 101.473ZM500.036 92.4123L498.76 91.982L498.242 91.804V91.2856L498.464 85.9173L498.494 85.2353H501.267L501.237 85.9622L501.015 91.7603L500.985 92.7239L500.036 92.3979L500.036 92.4123Z" fill="#231815"/>
<path d="M404.194 86.1242L404.224 85.4566H424.94L425.311 75.7435H404.594L404.624 75.0166L404.743 69.7231H391.337L391.203 75.0765L391.174 75.7441H369.953L369.582 85.4572H390.803L390.773 86.1841L390.462 94.3253L390.432 94.9928H369.33L368.959 104.647H385.778L384.251 105.878C380.069 109.244 375.605 111.439 368.947 113.411L368.502 125.334C375.813 123.555 383.198 119.847 388.418 115.28L389.708 114.153L389.651 115.828L389.28 127.647H402.686L403.057 115.962L403.114 114.302L404.315 115.502C408.631 119.803 415.202 123.199 423.356 125.349L423.801 113.471C416.889 111.276 413.761 109.66 408.927 105.908L407.34 104.677H424.453L424.824 95.0234H403.84L403.869 94.2965L404.181 86.1553L404.194 86.1242Z" fill="#231815"/>
<path d="M381.223 96.9945L388.074 99.886C388.816 100.198 389.75 99.7973 389.468 99.2927L377.753 79.5993C377.382 78.9766 375.766 79.1097 375.944 79.7923L378.997 91.5962L381.221 96.9795L381.223 96.9945Z" fill="#231815"/>
<path d="M412.928 96.8163L419.779 99.7078C420.52 100.019 421.455 99.6191 421.173 99.1145L409.458 79.4211C409.087 78.7984 407.47 78.9315 407.648 79.614L410.701 91.418L412.926 96.8013L412.928 96.8163Z" fill="#231815"/>
<path d="M40.0496 25.0577H61.4077V27.4769H40.0496V25.0577ZM54.1155 22.2929H56.673V37.2229C56.673 38.7435 56.3619 39.5038 55.256 39.9185C54.1501 40.3333 52.3184 40.3678 49.5882 40.3678C49.4845 39.6421 49.1043 38.5707 48.7242 37.8104C50.8669 37.8795 52.8023 37.8795 53.4243 37.8449C53.9773 37.8104 54.1155 37.7067 54.1155 37.1883V22.2929ZM57.6061 8.57263L59.4032 10.5771C54.4611 12.0632 46.8925 13.2382 40.4643 13.8949C40.3606 13.3073 40.0496 12.3742 39.7386 11.8213C46.0631 11.0955 53.4243 9.8859 57.6061 8.57263ZM40.9827 15.692L43.16 14.9662C44.2659 16.9361 45.3719 19.5627 45.7174 21.2561L43.4019 22.0856C43.0563 20.4267 42.0541 17.6965 40.9827 15.692ZM47.7565 14.3441L50.072 13.7912C50.9015 15.8302 51.6272 18.3877 51.7654 20.012L49.3117 20.6686C49.208 19.0097 48.5514 16.3832 47.7565 14.3441ZM42.8144 30.0344L44.9571 28.8939C46.7543 30.6565 48.7242 33.2139 49.5882 34.9419L47.3418 36.2552C46.5815 34.4926 44.6115 31.8661 42.8144 30.0344ZM36.1098 8.60718H38.5981V40.3678H36.1098V8.60718ZM29.1286 31.2094C31.064 30.2072 33.967 28.4792 36.801 26.7512L37.6304 28.9285C35.1766 30.6565 32.6192 32.419 30.4419 33.8705L29.1286 31.2094ZM29.5088 13.9985L31.617 12.9963C33.2758 15.1736 34.9693 18.1112 35.6259 20.012L33.3795 21.2216C32.7574 19.2517 31.0986 16.2449 29.5088 13.9985ZM58.4355 13.3765L60.7856 14.5515C58.9194 17.4545 56.3965 20.7723 54.4266 23.0187L52.4221 21.8782C54.3575 19.6318 56.984 16.0721 58.4355 13.3765ZM64.76 23.9173H95.4839V26.4056H64.76V23.9173ZM66.4189 12.7544H94.0323V15.2427H66.4189V12.7544ZM78.6877 8.60718H81.4179V40.3678H78.6877V8.60718ZM88.952 15.8648L91.6477 16.7288C90.4035 19.1134 88.8829 21.8782 87.6387 23.6062L85.4269 22.8113C86.6365 20.9797 88.1571 17.9729 88.952 15.8648ZM69.2183 16.9016L71.4992 16.0376C72.9162 18.0421 74.2986 20.7723 74.7824 22.5349L72.3287 23.5371C71.8794 21.7745 70.5661 18.9752 69.2183 16.9016ZM77.9965 24.8849L80.1047 25.7489C76.8215 31.1403 71.0845 36.2552 65.8314 38.8472C65.4167 38.2251 64.5872 37.2574 63.9997 36.739C69.2528 34.4581 75.0243 29.6542 77.9965 24.8849ZM82.1783 24.8849C85.185 29.6542 90.9911 34.5272 96.2442 36.8081C95.6567 37.3265 94.8272 38.3288 94.4125 38.9854C89.1248 36.3589 83.3879 31.1057 80.0701 25.7835L82.1783 24.8849ZM116.842 14.0331C116.393 17.6273 115.701 21.6709 114.63 25.3688C112.522 32.4536 109.757 36.1169 106.578 36.1169C103.467 36.1169 100.391 32.5918 100.391 26.8549C100.391 19.3553 107.061 12.8235 115.529 12.8235C123.616 12.8235 128.765 18.5259 128.765 25.5416C128.765 32.7646 123.996 37.603 115.771 38.6744L114.181 36.1169C115.287 36.0133 116.324 35.875 117.153 35.7022C121.577 34.7 125.931 31.3822 125.931 25.4033C125.931 19.8737 122.095 15.3118 115.46 15.3118C107.856 15.3118 103.122 21.5672 103.122 26.6475C103.122 31.0021 105.092 32.9374 106.647 32.9374C108.271 32.9374 110.137 30.5873 111.9 24.7467C112.902 21.4635 113.628 17.5582 113.973 13.964L116.842 14.0331ZM140.204 22.2238V34.4581H137.751V24.643H133.5V22.2238H140.204ZM140.204 33.4213C141.829 36.0133 144.905 37.1883 149.017 37.3611C152.923 37.5339 161.044 37.4302 165.295 37.1537C164.984 37.7067 164.569 38.8817 164.466 39.6075C160.526 39.7803 152.992 39.8494 149.052 39.7112C144.455 39.5384 141.31 38.2942 139.133 35.564C137.647 37.0501 136.092 38.5361 134.433 40.0913L133.085 37.6376C134.571 36.4971 136.403 34.9419 137.993 33.4213H140.204ZM133.673 10.7153L135.677 9.40206C137.716 11.0609 140.032 13.4456 140.999 15.1736L138.822 16.6597C137.924 14.9317 135.677 12.4433 133.673 10.7153ZM142.762 23.1915H163.74V25.196H142.762V23.1915ZM141.656 28.5137H164.811V30.5528H141.656V28.5137ZM147.877 20.7032H150.365V29.516H147.877V20.7032ZM156.033 20.7032H158.487V29.516H156.033V20.7032ZM143.626 13.9985H149.708V11.7521H142.313V9.95503H151.989V15.8302H143.626V13.9985ZM142.9 13.9985H145.112V17.5928C145.112 18.2494 145.285 18.3877 146.391 18.3877C146.875 18.3877 149.501 18.3877 150.158 18.3877C150.987 18.3877 151.16 18.1803 151.264 16.6597C151.678 17.0053 152.542 17.2817 153.164 17.3854C152.923 19.6318 152.266 20.2193 150.503 20.2193C149.95 20.2193 146.667 20.2193 146.149 20.2193C143.591 20.2193 142.9 19.7009 142.9 17.6273V13.9985ZM155.031 13.9985H161.01V11.7521H153.648V9.95503H163.256V15.8302H155.031V13.9985ZM154.27 13.9985H156.482V17.5928C156.482 18.2494 156.69 18.3877 157.865 18.3877C158.418 18.3877 161.252 18.3877 161.943 18.3877C162.807 18.3877 162.98 18.1803 163.083 16.556C163.532 16.867 164.397 17.1435 165.019 17.2817C164.777 19.6318 164.12 20.2193 162.254 20.2193C161.701 20.2193 158.176 20.2193 157.623 20.2193C154.996 20.2193 154.27 19.7009 154.27 17.5928V13.9985ZM155.411 32.108L157.277 30.9675C159.8 32.1771 162.634 33.8705 164.293 35.1493L161.735 36.2897C160.353 35.011 157.796 33.3521 155.411 32.108ZM149.086 30.8984L151.367 31.6933C149.605 33.3867 146.805 35.0801 144.49 36.1861C144.11 35.7368 143.142 34.9073 142.589 34.5617C144.939 33.6286 147.531 32.3153 149.086 30.8984ZM182.229 10.5771H184.821V22.3621C184.821 27.8917 184.13 35.5294 179.43 40.4024C179.015 39.884 177.979 38.9854 177.426 38.6398C181.815 34.1125 182.229 27.5115 182.229 22.3621V10.5771ZM191.422 23.5025C192.736 30.1035 195.535 35.7713 200.304 38.1905C199.682 38.7089 198.887 39.7457 198.473 40.4369C193.323 37.4993 190.455 31.4513 188.969 23.9518L191.422 23.5025ZM183.266 10.5771H198.404V24.5048H183.266V22.051H195.812V13.0309H183.266V10.5771ZM168.094 15.6229H180.501V18.0766H168.094V15.6229ZM173.278 8.60718H175.767V37.2229C175.767 38.7781 175.352 39.5038 174.419 39.884C173.451 40.3333 171.931 40.3678 169.269 40.3678C169.166 39.7112 168.82 38.6398 168.475 37.9832C170.341 38.0523 172 38.0177 172.518 37.9832C173.036 37.9486 173.278 37.8104 173.278 37.2574V8.60718ZM167.645 26.8203C170.894 26.1637 175.836 24.9886 180.501 23.8481L180.743 26.2328C176.389 27.3387 171.758 28.5137 168.302 29.3432L167.645 26.8203ZM205.765 9.85135H213.333V12.2705H205.765V9.85135ZM205.765 17.9384H213.403V20.3576H205.765V17.9384ZM205.696 26.2328H213.368V28.6865H205.696V26.2328ZM204.728 9.85135H207.078V22.2929C207.078 27.6843 206.732 35.3221 204.313 40.4369C203.829 40.0222 202.793 39.4347 202.171 39.1928C204.555 34.3198 204.728 27.3733 204.728 22.2929V9.85135ZM211.916 9.85135H214.37V37.292C214.37 38.6744 214.059 39.4693 213.161 39.9185C212.297 40.3333 210.88 40.4024 208.599 40.3678C208.53 39.7457 208.149 38.5707 207.804 37.9141C209.428 37.9486 210.845 37.9486 211.294 37.9141C211.744 37.8795 211.916 37.7413 211.916 37.2574V9.85135ZM215.303 14.0331H233.862V16.4869H215.303V14.0331ZM215.718 21.4289H230.924V23.779H215.718V21.4289ZM223.079 8.57263H225.671V22.8805H223.079V8.57263ZM219.831 23.6753C222.215 30.6219 227.33 35.9787 234.588 38.1905C234 38.7089 233.24 39.7112 232.825 40.3678C225.429 37.8104 220.245 32.0734 217.515 24.3665L219.831 23.6753ZM230.13 21.4289H230.613L231.063 21.2907L232.756 22.0165C230.095 31.4168 223.46 37.4648 216.202 40.3678C215.891 39.7457 215.165 38.6744 214.612 38.1214C221.455 35.7368 227.883 29.8961 230.13 21.9128V21.4289ZM251.522 10.3006C251.211 11.6485 250.831 13.5493 249.933 15.8648C249.069 17.9729 247.79 20.2885 246.407 22.0856C247.755 21.2907 249.725 20.8069 251.246 20.8069C253.907 20.8069 255.981 22.3966 255.981 25.196C255.981 26.9931 256.05 30.9675 256.084 33.1102H253.423C253.561 31.2785 253.596 27.7189 253.561 25.9217C253.527 23.9173 252.144 22.9841 250.347 22.9841C248.135 22.9841 245.958 24.0901 244.368 25.507C243.366 26.4747 242.398 27.7189 241.258 29.1358L238.873 27.3733C243.85 22.604 246.165 18.595 247.341 15.6574C248.101 13.7566 248.585 11.683 248.688 10.0587L251.522 10.3006ZM239.668 14.0331C241.534 14.275 243.919 14.3787 245.509 14.3787C250.174 14.3787 256.153 14.1022 261.026 13.2382V15.7957C256.188 16.5214 249.76 16.8325 245.371 16.8325C243.885 16.8325 241.604 16.7633 239.668 16.6251V14.0331ZM266.072 22.3621C265.208 22.6385 263.964 23.1224 263.031 23.468C260.577 24.4357 257.294 25.7489 253.941 27.4769C250.52 29.2741 248.101 31.1403 248.101 33.5249C248.101 36.2206 250.762 36.6353 254.322 36.6353C257.017 36.6353 260.75 36.3243 263.791 35.7713L263.687 38.5707C261.061 38.8817 257.225 39.1582 254.218 39.1582C249.31 39.1582 245.336 38.0869 245.336 33.9051C245.336 29.6888 249.621 27.0968 253.734 24.9886C257.017 23.2952 259.817 22.2238 262.098 21.1525C263.134 20.6686 263.998 20.2885 264.966 19.8046L266.072 22.3621ZM277.304 35.9096C282.937 35.7368 291.923 35.3566 300.39 34.9073L300.321 37.2574C292.13 37.8104 283.421 38.3288 277.581 38.6053L277.304 35.9096ZM286.981 18.0421L289.884 18.6987C288.19 24.8158 285.668 32.4881 283.594 37.2229L281.175 36.5317C283.248 31.7624 285.702 23.8136 286.981 18.0421ZM293.34 27.7189L295.69 26.6475C298.8 30.5528 302.222 35.8059 303.57 39.2619L300.978 40.5061C299.699 37.0846 296.45 31.6933 293.34 27.7189ZM275.922 13.3765H303.051V15.8648H275.922V13.3765ZM274.574 13.3765H277.166V22.5349C277.166 27.7534 276.682 35.3912 273.433 40.4369C272.984 39.9877 271.878 39.2273 271.221 38.9854C274.297 34.1816 274.574 27.4078 274.574 22.5349V13.3765ZM287.085 8.60718H289.746V14.5861H287.085V8.60718ZM330.285 11.1992C330.25 11.7521 330.215 12.4433 330.181 13.2037C330.146 14.5169 330.285 20.323 330.285 22.2584C330.285 30.2072 330.285 35.8405 322.958 40.1605L320.435 38.1905C321.506 37.7758 322.923 36.8773 323.787 36.0478C327.485 32.8337 327.658 28.8939 327.658 22.2584C327.658 20.0465 327.52 14.6897 327.416 13.2382C327.347 12.4779 327.209 11.7176 327.105 11.1992H330.285ZM318.05 18.3185C319.536 18.5605 321.748 18.7333 323.614 18.7333C327.865 18.7333 332.773 18.4222 336.229 17.6619V20.4613C332.911 21.0142 328.038 21.2907 323.649 21.2907C321.956 21.2907 319.536 21.187 318.05 21.0833V18.3185ZM313.177 11.7176C312.97 12.3397 312.728 13.3073 312.59 13.9294C311.484 18.9752 310.309 26.5438 311.622 32.1771C312.106 30.7256 312.832 28.6174 313.454 26.8894L314.94 27.788C314.11 30.2072 313.074 33.7323 312.693 35.4603C312.59 35.9441 312.521 36.6008 312.555 37.0155C312.555 37.3265 312.624 37.8104 312.659 38.156L310.309 38.467C309.618 36.3243 308.477 31.8315 308.477 27.5115C308.477 21.8782 309.376 16.5905 309.79 13.6875C309.929 12.8926 309.963 11.9941 309.963 11.372L313.177 11.7176ZM333.049 10.2661C333.671 11.5448 334.57 13.6529 335.054 15.0699L333.291 15.6574C332.807 14.1713 332.047 12.1323 331.356 10.819L333.049 10.2661ZM336.505 9.22926C337.162 10.4734 338.026 12.5816 338.544 13.964L336.816 14.5515C336.298 13.0309 335.538 11.0609 334.812 9.74766L336.505 9.22926ZM347.53 12.1669C348.29 12.236 349.258 12.2705 349.949 12.2705C351.781 12.2705 359.972 12.0286 361.803 11.8558C362.84 11.7521 363.324 11.683 363.704 11.5448L365.294 13.5838C364.672 13.9985 363.98 14.4478 363.324 14.9662C361.63 16.2795 356.93 20.323 354.235 22.5349C355.824 22.0165 357.483 21.8437 359.038 21.8437C364.775 21.8437 368.888 25.2651 368.888 29.9307C368.888 35.4949 364.292 39.1237 356.965 39.1237C352.265 39.1237 349.396 37.0846 349.396 34.1816C349.396 31.8315 351.539 29.6888 354.718 29.6888C359.315 29.6888 361.63 32.9374 361.872 36.428L359.384 36.8427C359.177 33.9051 357.483 31.7969 354.718 31.7969C353.129 31.7969 351.919 32.7646 351.919 33.9742C351.919 35.6677 353.82 36.6699 356.55 36.6699C362.425 36.6699 366.123 34.2507 366.123 29.9307C366.123 26.5093 362.875 23.9864 358.347 23.9864C352.61 23.9864 349.5 26.4056 345.145 30.8638L343.141 28.8593C346.009 26.5093 350.468 22.7768 352.437 21.0833C354.373 19.4936 358.727 15.8648 360.455 14.3096C358.624 14.4133 351.712 14.6897 349.915 14.7934C349.12 14.8625 348.359 14.8971 347.599 15.0008L347.53 12.1669ZM381.744 20.2539H398.852V22.5349H381.744V20.2539ZM375.938 28.1336H406.489V30.5528H375.938V28.1336ZM389.831 25.6107H392.492V37.292C392.492 38.8472 392.078 39.6075 390.764 39.9877C389.52 40.3678 387.516 40.4024 384.371 40.4024C384.198 39.6766 383.68 38.6053 383.265 37.9141C385.926 37.9832 388.276 37.9832 388.967 37.9486C389.659 37.9141 389.831 37.7413 389.831 37.2229V25.6107ZM398.057 20.2539H398.713L399.266 20.1157L400.925 21.3944C398.575 23.779 394.946 26.1637 391.663 27.5806C391.352 27.1313 390.661 26.4401 390.212 26.06C393.115 24.8158 396.432 22.5349 398.057 20.7723V20.2539ZM376.629 14.3441H405.902V22.051H403.344V16.6942H379.083V22.051H376.629V14.3441ZM401.34 8.81454L404.036 9.7131C402.584 11.8558 400.718 14.1713 399.266 15.692L397.227 14.828C398.61 13.2037 400.372 10.6462 401.34 8.81454ZM378.98 10.0241L381.157 8.98734C382.505 10.4389 383.922 12.4088 384.509 13.7912L382.194 14.8971C381.641 13.5838 380.258 11.5102 378.98 10.0241ZM387.861 9.26382L390.108 8.43438C391.283 10.0587 392.527 12.3051 392.942 13.7566L390.557 14.6897C390.142 13.2382 389.002 10.9573 387.861 9.26382ZM414.818 26.0945H436.902V40.4715H434.241V28.1681H417.376V40.4715H414.818V26.0945ZM416.166 31.4859H435.07V33.5595H416.166V31.4859ZM416.27 37.0501H435.07V39.1237H416.27V37.0501ZM424.288 22.8459L427.018 23.3643C426.258 24.8849 425.359 26.4401 424.633 27.4769L422.525 26.924C423.182 25.7489 423.942 23.9864 424.288 22.8459ZM410.913 10.3697H422.421V12.4433H410.913V10.3697ZM421.73 10.3697H424.115V21.8091C424.115 22.9496 423.838 23.5371 423.009 23.8827C422.11 24.2283 420.728 24.2283 418.516 24.2283C418.412 23.6408 418.101 22.8459 417.79 22.2929C419.38 22.3275 420.763 22.3275 421.177 22.2929C421.627 22.2929 421.73 22.1547 421.73 21.8091V10.3697ZM426.292 10.3697H438.354V12.4433H426.292V10.3697ZM437.179 10.3697H439.598V21.8091C439.598 23.0187 439.356 23.6062 438.423 23.9864C437.524 24.332 436.038 24.3665 433.723 24.332C433.619 23.7445 433.308 22.8805 432.997 22.2929C434.621 22.3621 436.142 22.3621 436.591 22.3275C437.04 22.2929 437.179 22.2238 437.179 21.8091V10.3697ZM425.497 20.5649C428.02 19.7701 431.684 18.4913 435.312 17.2126L435.692 19.1134C432.513 20.323 429.126 21.6363 426.465 22.5694L425.497 20.5649ZM427.26 14.3441L428.608 12.7889C430.267 13.5838 432.306 14.8971 433.273 15.9339L431.856 17.6619C430.923 16.5905 428.919 15.2081 427.26 14.3441ZM410.084 21.2561C412.468 20.4958 415.924 19.1825 419.38 17.9038L419.795 19.8392C416.754 21.0833 413.609 22.3966 411.086 23.3989L410.084 21.2561ZM412.364 14.3096L413.747 12.7889C415.371 13.6529 417.376 15.0008 418.309 16.0376L416.892 17.731C415.959 16.6942 414.023 15.2427 412.364 14.3096ZM444.574 37.2229H475.955V39.4001H444.574V37.2229ZM447.789 31.9352H473.017V34.0433H447.789V31.9352ZM458.848 29.6197H461.474V38.3288H458.848V29.6197ZM444.747 11.0955H460.161V12.9272H444.747V11.0955ZM460.265 19.4936L461.543 17.8693C464.412 19.5281 467.972 22.0165 469.665 23.8481L468.283 25.6798C466.624 23.8481 463.133 21.2216 460.265 19.4936ZM451.314 8.60718H453.733V12.1323H451.314V8.60718ZM451.486 23.3297H453.698V28.5483C453.698 29.6542 453.491 30.1035 452.558 30.4145C451.659 30.691 450.242 30.691 448.03 30.691C447.927 30.1381 447.616 29.4469 447.339 28.9285C449.033 28.9976 450.484 28.963 450.899 28.9285C451.348 28.9285 451.486 28.8248 451.486 28.4792V23.3297ZM444.471 24.5393C448.376 24.4357 454.459 24.2629 460.472 24.0209L460.403 25.7835C454.631 26.06 448.687 26.3019 444.609 26.4401L444.471 24.5393ZM446.579 20.3576H456.981V22.0165H446.579V20.3576ZM460.679 13.3419H471.566V15.6229H460.679V13.3419ZM456.29 20.3576H456.878L457.362 20.2193L458.779 21.3944C457.12 22.7077 454.873 23.9864 453.145 24.8158C452.869 24.5048 452.385 23.9864 452.074 23.779C453.456 22.9496 455.253 21.74 456.29 20.7723V20.3576ZM470.356 13.3419H472.706C472.672 21.6709 472.775 27.9608 474.365 27.9608C474.849 27.9608 475.022 26.0254 475.056 23.468C475.506 23.9864 476.162 24.5739 476.612 24.8849C476.404 28.7902 475.989 30.2417 474.192 30.2417C470.494 30.2417 470.46 23.2261 470.356 13.3419ZM448.618 15.692V17.5928H456.221V15.692H448.618ZM446.406 14.1713H458.537V19.1134H446.406V14.1713ZM464.965 8.95278H467.211V13.9294C467.211 18.8715 466.382 25.2651 460.437 29.827C460.092 29.3086 459.297 28.5137 458.813 28.1336C464.308 23.9864 464.965 18.1803 464.965 13.8949V8.95278Z" fill="#262626"/>
<path d="M152.985 169.947H47.577C36.4429 169.947 27.417 178.973 27.417 190.107C27.417 201.241 36.4429 210.267 47.577 210.267H152.985C164.119 210.267 173.145 201.241 173.145 190.107C173.145 178.973 164.119 169.947 152.985 169.947Z" fill="#FFB100"/>
<path d="M177.753 230.427H72.3451C61.211 230.427 52.1851 239.453 52.1851 250.587C52.1851 261.721 61.211 270.747 72.3451 270.747H177.753C188.887 270.747 197.913 261.721 197.913 250.587C197.913 239.453 188.887 230.427 177.753 230.427Z" fill="#AA68AA"/>
<path d="M309.081 169.947H203.673C192.539 169.947 183.513 178.973 183.513 190.107C183.513 201.241 192.539 210.267 203.673 210.267H309.081C320.215 210.267 329.241 201.241 329.241 190.107C329.241 178.973 320.215 169.947 309.081 169.947Z" fill="#B6D43E"/>
<path d="M465.177 169.947H359.769C348.635 169.947 339.609 178.973 339.609 190.107C339.609 201.241 348.635 210.267 359.769 210.267H465.177C476.311 210.267 485.337 201.241 485.337 190.107C485.337 178.973 476.311 169.947 465.177 169.947Z" fill="#28AFE7"/>
<path d="M81.1811 198.874H94.4111V201.422H81.1811V198.874ZM79.7601 193.288H96.0526V202.255H93.0146V195.836H82.6511V202.329H79.7601V193.288ZM77.0406 181.504H86.6201V183.856H77.0406V181.504ZM88.8006 184.444H98.8456V187.041H88.8006V184.444ZM76.5996 186.134C77.4652 186.052 78.4452 185.963 79.5396 185.865C80.6339 185.75 81.7936 185.636 83.0186 185.522C84.2599 185.391 85.4849 185.26 86.6936 185.13L86.7426 187.433C85.0112 187.645 83.2717 187.857 81.5241 188.07C79.7927 188.282 78.2492 188.47 76.8936 188.633L76.5996 186.134ZM92.8186 185.571H95.7096V192.627H92.8186V185.571ZM80.6421 179.25H83.5086V190.201C83.5086 190.838 83.4351 191.328 83.2881 191.671C83.1411 192.014 82.8552 192.284 82.4306 192.48C82.0059 192.659 81.4996 192.774 80.9116 192.823C80.3399 192.855 79.6621 192.872 78.8781 192.872C78.8127 192.512 78.6984 192.112 78.5351 191.671C78.3881 191.23 78.2411 190.838 78.0941 190.495C78.5187 190.511 78.9434 190.528 79.3681 190.544C79.7927 190.544 80.0786 190.536 80.2256 190.52C80.3889 190.52 80.4951 190.495 80.5441 190.446C80.6094 190.381 80.6421 190.275 80.6421 190.128V179.25ZM87.6736 180.181L91.1036 181.063C91.0872 181.275 90.8749 181.422 90.4666 181.504V184.076C90.4666 184.697 90.4176 185.383 90.3196 186.134C90.2216 186.869 90.0419 187.629 89.7806 188.413C89.5192 189.18 89.1354 189.932 88.6291 190.667C88.1391 191.385 87.4857 192.047 86.6691 192.651C86.5547 192.439 86.3751 192.202 86.1301 191.941C85.9014 191.663 85.6564 191.402 85.3951 191.157C85.1337 190.895 84.8969 190.707 84.6846 190.593C85.5666 189.94 86.2199 189.229 86.6446 188.462C87.0692 187.694 87.3469 186.926 87.4776 186.159C87.6082 185.391 87.6736 184.656 87.6736 183.954V180.181ZM96.1996 179.274L98.1841 181.406C97.3347 181.667 96.3956 181.904 95.3666 182.116C94.3539 182.328 93.3167 182.508 92.2551 182.655C91.2097 182.802 90.1971 182.916 89.2171 182.998C89.1681 182.704 89.0619 182.345 88.8986 181.92C88.7516 181.495 88.6046 181.136 88.4576 180.842C89.3722 180.728 90.3032 180.597 91.2506 180.45C92.2142 180.303 93.1207 180.132 93.9701 179.936C94.8357 179.723 95.5789 179.503 96.1996 179.274ZM105.706 187.653H117V190.201H105.706V187.653ZM101.32 193.166H123.248V195.861H101.32V193.166ZM110.753 191.573H113.766V199.144C113.766 199.895 113.66 200.483 113.448 200.908C113.235 201.332 112.835 201.651 112.247 201.863C111.659 202.075 110.973 202.206 110.189 202.255C109.405 202.304 108.49 202.329 107.445 202.329C107.347 201.904 107.176 201.414 106.931 200.859C106.702 200.32 106.473 199.854 106.245 199.462C106.767 199.478 107.298 199.495 107.837 199.511C108.376 199.527 108.85 199.536 109.258 199.536C109.683 199.536 109.977 199.527 110.14 199.511C110.385 199.511 110.548 199.478 110.63 199.413C110.712 199.348 110.753 199.233 110.753 199.07V191.573ZM116.069 187.653H116.78L117.417 187.506L119.254 188.927C118.715 189.531 118.086 190.136 117.368 190.74C116.649 191.344 115.898 191.916 115.114 192.455C114.33 192.978 113.537 193.435 112.737 193.827C112.557 193.566 112.304 193.272 111.978 192.945C111.667 192.602 111.406 192.324 111.194 192.112C111.831 191.785 112.459 191.393 113.08 190.936C113.717 190.479 114.297 190.013 114.82 189.54C115.342 189.05 115.759 188.609 116.069 188.217V187.653ZM101.639 183.17H122.978V189.172H120.087V185.767H104.383V189.172H101.639V183.17ZM118.593 179.446L121.778 180.377C121.222 181.193 120.642 181.994 120.038 182.778C119.434 183.562 118.887 184.223 118.397 184.762L115.971 183.88C116.298 183.455 116.616 182.99 116.927 182.484C117.253 181.977 117.564 181.463 117.858 180.94C118.152 180.401 118.397 179.903 118.593 179.446ZM103.28 180.646L105.779 179.519C106.22 180.009 106.653 180.556 107.078 181.161C107.502 181.749 107.813 182.279 108.009 182.753L105.363 184.003C105.183 183.545 104.889 183.006 104.481 182.386C104.089 181.749 103.688 181.169 103.28 180.646ZM109.43 180.107L112.027 179.152C112.419 179.674 112.794 180.27 113.154 180.94C113.529 181.61 113.799 182.198 113.962 182.704L111.194 183.782C111.063 183.292 110.826 182.704 110.483 182.018C110.156 181.316 109.805 180.679 109.43 180.107Z" fill="white"/>
<path d="M99.4656 253.401H121.565V256.12H99.4656V253.401ZM101.818 247.741H119.36V254.577H116.395V250.289H104.66V254.577H101.818V247.741ZM108.874 245.291H111.961V252.543C111.961 253.425 111.863 254.283 111.667 255.116C111.471 255.932 111.136 256.724 110.662 257.492C110.188 258.243 109.527 258.946 108.678 259.599C107.828 260.252 106.75 260.849 105.444 261.388C104.153 261.943 102.593 262.425 100.764 262.833C100.65 262.604 100.486 262.335 100.274 262.025C100.078 261.714 99.8576 261.404 99.6126 261.094C99.384 260.8 99.1553 260.546 98.9266 260.334C100.642 260.024 102.087 259.656 103.263 259.232C104.455 258.791 105.419 258.325 106.154 257.835C106.889 257.329 107.453 256.79 107.845 256.218C108.253 255.646 108.522 255.05 108.653 254.43C108.8 253.793 108.874 253.156 108.874 252.519V245.291ZM111.936 254.454C112.736 256.104 113.986 257.394 115.685 258.325C117.4 259.24 119.572 259.836 122.202 260.114C122.006 260.326 121.785 260.587 121.54 260.898C121.311 261.224 121.091 261.551 120.879 261.878C120.683 262.221 120.511 262.539 120.364 262.833C118.486 262.506 116.844 262.016 115.44 261.363C114.035 260.726 112.834 259.893 111.838 258.864C110.842 257.819 110.009 256.553 109.339 255.067L111.936 254.454ZM99.7106 241.665H121.271V244.287H99.7106V241.665ZM104.513 239.754H107.404V246.467H104.513V239.754ZM113.504 239.754H116.42V246.467H113.504V239.754ZM134.28 253.572H145.06V262.686H142.194V256.194H137.049V262.784H134.28V253.572ZM133.79 244.703H144.521V251.073H141.704V247.202H133.79V244.703ZM136.804 241.494L139.646 241.739C139.515 242.768 139.36 243.854 139.18 244.997C139 246.14 138.813 247.243 138.617 248.305C138.437 249.366 138.257 250.297 138.078 251.098H135.236C135.383 250.477 135.521 249.775 135.652 248.991C135.799 248.207 135.946 247.39 136.093 246.541C136.24 245.675 136.371 244.817 136.485 243.968C136.599 243.102 136.706 242.278 136.804 241.494ZM133.398 240.465H145.746V242.964H133.398V240.465ZM132.516 249.701H146.628V252.274H132.516V249.701ZM135.383 259.207H143.835V261.829H135.383V259.207ZM124.676 247.447H131.757V249.677H124.676V247.447ZM124.823 240.538H131.781V242.743H124.823V240.538ZM124.676 250.877H131.757V253.107H124.676V250.877ZM123.5 243.919H132.639V246.247H123.5V243.919ZM126.048 254.356H131.928V261.804H126.048V259.477H129.429V256.684H126.048V254.356ZM124.603 254.356H127.077V262.76H124.603V254.356Z" fill="white"/>
<path d="M436.377 230.427H235.353C224.219 230.427 215.193 239.453 215.193 250.587C215.193 261.721 224.219 270.747 235.353 270.747H436.377C447.511 270.747 456.537 261.721 456.537 250.587C456.537 239.453 447.511 230.427 436.377 230.427Z" fill="#EE242C"/>
<path d="M267.931 242.621C267.931 243.013 268.07 243.347 268.347 243.625C268.625 243.886 268.952 244.017 269.327 244.017C269.719 244.017 270.054 243.886 270.332 243.625C270.61 243.347 270.748 243.013 270.748 242.621C270.748 242.229 270.61 241.894 270.332 241.616C270.054 241.338 269.719 241.2 269.327 241.2C268.952 241.2 268.625 241.338 268.347 241.616C268.07 241.894 267.931 242.229 267.931 242.621ZM266.412 242.621C266.412 242.082 266.543 241.592 266.804 241.151C267.082 240.693 267.441 240.334 267.882 240.073C268.323 239.811 268.805 239.681 269.327 239.681C269.866 239.681 270.356 239.811 270.797 240.073C271.255 240.334 271.614 240.693 271.875 241.151C272.137 241.592 272.267 242.082 272.267 242.621C272.267 243.143 272.137 243.625 271.875 244.066C271.614 244.507 271.255 244.866 270.797 245.144C270.356 245.405 269.866 245.536 269.327 245.536C268.805 245.536 268.323 245.405 267.882 245.144C267.441 244.866 267.082 244.507 266.804 244.066C266.543 243.625 266.412 243.143 266.412 242.621ZM269.376 244.556C269.262 244.785 269.164 245.062 269.082 245.389C269.001 245.699 268.919 245.985 268.837 246.247C268.707 246.851 268.535 247.529 268.323 248.28C268.111 249.015 267.857 249.783 267.563 250.583C267.269 251.383 266.918 252.176 266.51 252.96C266.118 253.744 265.669 254.479 265.162 255.165C264.427 256.145 263.57 257.059 262.59 257.909C261.61 258.758 260.516 259.526 259.307 260.212C258.098 260.898 256.767 261.477 255.313 261.951L252.643 259.011C254.276 258.619 255.681 258.137 256.857 257.566C258.033 256.994 259.054 256.341 259.919 255.606C260.801 254.871 261.577 254.087 262.247 253.254C262.786 252.568 263.243 251.824 263.619 251.024C264.011 250.224 264.329 249.423 264.574 248.623C264.836 247.806 265.015 247.047 265.113 246.345C264.868 246.345 264.46 246.345 263.888 246.345C263.333 246.345 262.672 246.345 261.904 246.345C261.153 246.345 260.36 246.345 259.527 246.345C258.711 246.345 257.919 246.345 257.151 246.345C256.383 246.345 255.689 246.345 255.068 246.345C254.464 246.345 254.015 246.345 253.721 246.345C253.149 246.345 252.594 246.353 252.055 246.369C251.532 246.385 251.116 246.41 250.805 246.443V242.988C251.05 243.021 251.344 243.053 251.687 243.086C252.047 243.119 252.406 243.143 252.765 243.16C253.141 243.176 253.46 243.184 253.721 243.184C253.982 243.184 254.35 243.184 254.823 243.184C255.313 243.184 255.877 243.184 256.514 243.184C257.151 243.184 257.812 243.184 258.498 243.184C259.201 243.184 259.895 243.184 260.581 243.184C261.283 243.184 261.937 243.184 262.541 243.184C263.145 243.184 263.668 243.184 264.109 243.184C264.55 243.184 264.868 243.184 265.064 243.184C265.309 243.184 265.603 243.176 265.946 243.16C266.306 243.143 266.649 243.086 266.975 242.988L269.376 244.556ZM275.82 243.209C276.326 243.225 276.8 243.241 277.241 243.258C277.698 243.258 278.09 243.258 278.417 243.258C278.678 243.258 279.078 243.258 279.617 243.258C280.173 243.258 280.818 243.258 281.553 243.258C282.288 243.258 283.072 243.258 283.905 243.258C284.738 243.258 285.571 243.258 286.404 243.258C287.253 243.258 288.045 243.258 288.78 243.258C289.515 243.258 290.152 243.258 290.691 243.258C291.247 243.258 291.647 243.258 291.892 243.258C292.202 243.258 292.57 243.258 292.994 243.258C293.435 243.241 293.876 243.225 294.317 243.209C294.301 243.584 294.285 243.984 294.268 244.409C294.268 244.817 294.268 245.209 294.268 245.585C294.268 245.814 294.268 246.173 294.268 246.663C294.268 247.137 294.268 247.708 294.268 248.378C294.268 249.031 294.268 249.734 294.268 250.485C294.268 251.22 294.268 251.963 294.268 252.715C294.268 253.466 294.268 254.176 294.268 254.846C294.268 255.499 294.268 256.071 294.268 256.561C294.268 257.035 294.268 257.378 294.268 257.59C294.268 257.835 294.268 258.145 294.268 258.521C294.285 258.88 294.293 259.248 294.293 259.624C294.293 259.983 294.293 260.301 294.293 260.579C294.309 260.84 294.317 260.979 294.317 260.996H290.936C290.936 260.963 290.936 260.767 290.936 260.408C290.953 260.032 290.961 259.591 290.961 259.085C290.977 258.578 290.985 258.105 290.985 257.664C290.985 257.451 290.985 257.092 290.985 256.586C290.985 256.079 290.985 255.483 290.985 254.797C290.985 254.111 290.985 253.384 290.985 252.617C290.985 251.849 290.985 251.098 290.985 250.363C290.985 249.628 290.985 248.958 290.985 248.354C290.985 247.749 290.985 247.267 290.985 246.908C290.985 246.549 290.985 246.369 290.985 246.369H279.152C279.152 246.369 279.152 246.549 279.152 246.908C279.152 247.267 279.152 247.749 279.152 248.354C279.152 248.942 279.152 249.611 279.152 250.363C279.152 251.098 279.152 251.849 279.152 252.617C279.152 253.368 279.152 254.095 279.152 254.797C279.152 255.483 279.152 256.079 279.152 256.586C279.152 257.092 279.152 257.451 279.152 257.664C279.152 257.958 279.152 258.292 279.152 258.668C279.152 259.027 279.152 259.379 279.152 259.722C279.168 260.065 279.176 260.35 279.176 260.579C279.176 260.824 279.176 260.963 279.176 260.996H275.795C275.795 260.963 275.795 260.824 275.795 260.579C275.812 260.334 275.82 260.032 275.82 259.673C275.836 259.313 275.844 258.946 275.844 258.57C275.861 258.194 275.869 257.86 275.869 257.566C275.869 257.353 275.869 257.01 275.869 256.537C275.869 256.047 275.869 255.467 275.869 254.797C275.869 254.127 275.869 253.425 275.869 252.69C275.869 251.939 275.869 251.187 275.869 250.436C275.869 249.685 275.869 248.982 275.869 248.329C275.869 247.659 275.869 247.088 275.869 246.614C275.869 246.14 275.869 245.797 275.869 245.585C275.869 245.242 275.869 244.85 275.869 244.409C275.869 243.952 275.853 243.552 275.82 243.209ZM292.21 256.537V259.673H277.486V256.537H292.21ZM316.318 240.514C316.531 240.808 316.751 241.159 316.98 241.567C317.225 241.975 317.462 242.384 317.69 242.792C317.919 243.2 318.107 243.56 318.254 243.87L316.294 244.703C316.049 244.197 315.747 243.625 315.387 242.988C315.044 242.335 314.71 241.771 314.383 241.298L316.318 240.514ZM319.209 239.411C319.422 239.705 319.65 240.064 319.895 240.489C320.157 240.897 320.402 241.306 320.63 241.714C320.875 242.106 321.063 242.449 321.194 242.743L319.258 243.576C318.997 243.053 318.687 242.474 318.327 241.837C317.968 241.2 317.617 240.652 317.274 240.195L319.209 239.411ZM318.523 245.904C318.376 246.132 318.229 246.41 318.082 246.737C317.935 247.047 317.813 247.357 317.715 247.668C317.503 248.386 317.2 249.211 316.808 250.142C316.416 251.057 315.943 252.004 315.387 252.984C314.832 253.964 314.179 254.92 313.427 255.851C312.268 257.255 310.904 258.529 309.336 259.673C307.784 260.816 305.857 261.845 303.554 262.76L300.663 260.163C302.329 259.656 303.766 259.093 304.975 258.472C306.184 257.835 307.237 257.149 308.135 256.414C309.034 255.679 309.834 254.903 310.536 254.087C311.092 253.45 311.606 252.731 312.08 251.931C312.57 251.13 312.978 250.33 313.305 249.53C313.648 248.729 313.885 248.027 314.015 247.423H305.759L306.886 244.654C307.098 244.654 307.449 244.654 307.939 244.654C308.429 244.654 308.977 244.654 309.581 244.654C310.185 244.654 310.781 244.654 311.369 244.654C311.974 244.654 312.505 244.654 312.962 244.654C313.419 244.654 313.721 244.654 313.868 244.654C314.26 244.654 314.644 244.63 315.02 244.581C315.412 244.515 315.739 244.442 316 244.36L318.523 245.904ZM310.536 242.033C310.242 242.457 309.957 242.915 309.679 243.405C309.401 243.895 309.189 244.27 309.042 244.532C308.487 245.512 307.801 246.532 306.984 247.594C306.167 248.639 305.244 249.66 304.215 250.657C303.203 251.637 302.108 252.535 300.932 253.352L298.188 251.294C299.266 250.64 300.214 249.962 301.03 249.26C301.847 248.558 302.558 247.864 303.162 247.178C303.766 246.475 304.289 245.806 304.73 245.169C305.171 244.515 305.538 243.927 305.832 243.405C306.028 243.111 306.233 242.719 306.445 242.229C306.674 241.722 306.837 241.265 306.935 240.857L310.536 242.033ZM327.196 241.788C327.539 241.837 327.948 241.869 328.421 241.886C328.895 241.902 329.336 241.91 329.744 241.91C330.055 241.91 330.528 241.91 331.165 241.91C331.819 241.91 332.537 241.91 333.321 241.91C334.122 241.91 334.914 241.91 335.698 241.91C336.482 241.91 337.184 241.91 337.805 241.91C338.426 241.91 338.883 241.91 339.177 241.91C339.553 241.91 340.002 241.902 340.524 241.886C341.047 241.869 341.48 241.837 341.823 241.788V244.948C341.496 244.915 341.072 244.899 340.549 244.899C340.043 244.883 339.569 244.875 339.128 244.875C338.867 244.875 338.417 244.875 337.78 244.875C337.16 244.875 336.449 244.875 335.649 244.875C334.865 244.875 334.073 244.875 333.272 244.875C332.488 244.875 331.778 244.875 331.141 244.875C330.504 244.875 330.038 244.875 329.744 244.875C329.352 244.875 328.92 244.883 328.446 244.899C327.989 244.915 327.572 244.932 327.196 244.948V241.788ZM343.881 248.893C343.799 249.056 343.709 249.236 343.611 249.432C343.53 249.628 343.464 249.791 343.415 249.922C343.04 251.098 342.566 252.274 341.994 253.45C341.439 254.609 340.704 255.695 339.789 256.708C338.564 258.08 337.192 259.199 335.673 260.065C334.154 260.914 332.611 261.559 331.043 262L328.617 259.232C330.463 258.84 332.105 258.268 333.542 257.517C334.979 256.765 336.163 255.908 337.094 254.944C337.748 254.274 338.27 253.572 338.662 252.837C339.071 252.086 339.389 251.375 339.618 250.706C339.438 250.706 339.128 250.706 338.687 250.706C338.246 250.706 337.715 250.706 337.094 250.706C336.49 250.706 335.837 250.706 335.134 250.706C334.432 250.706 333.713 250.706 332.978 250.706C332.243 250.706 331.541 250.706 330.871 250.706C330.202 250.706 329.597 250.706 329.058 250.706C328.536 250.706 328.111 250.706 327.784 250.706C327.49 250.706 327.074 250.714 326.535 250.73C325.996 250.746 325.465 250.779 324.942 250.828V247.643C325.465 247.676 325.971 247.708 326.461 247.741C326.968 247.774 327.409 247.79 327.784 247.79C328.029 247.79 328.397 247.79 328.887 247.79C329.393 247.79 329.973 247.79 330.626 247.79C331.28 247.79 331.974 247.79 332.709 247.79C333.46 247.79 334.203 247.79 334.938 247.79C335.69 247.79 336.4 247.79 337.07 247.79C337.74 247.79 338.319 247.79 338.809 247.79C339.299 247.79 339.667 247.79 339.912 247.79C340.304 247.79 340.655 247.766 340.965 247.717C341.292 247.668 341.537 247.61 341.7 247.545L343.881 248.893ZM353.215 241.396C353.852 241.477 354.62 241.6 355.518 241.763C356.433 241.91 357.397 242.082 358.409 242.278C359.438 242.474 360.459 242.694 361.472 242.939C362.501 243.168 363.448 243.396 364.314 243.625C365.196 243.854 365.947 244.074 366.568 244.287L365.318 247.349C364.747 247.137 364.036 246.916 363.187 246.688C362.338 246.443 361.415 246.198 360.418 245.953C359.422 245.708 358.418 245.479 357.405 245.267C356.392 245.054 355.42 244.858 354.489 244.679C353.575 244.499 352.766 244.368 352.064 244.287L353.215 241.396ZM352.088 247.986C352.97 248.133 353.983 248.321 355.126 248.55C356.27 248.778 357.446 249.031 358.654 249.309C359.863 249.57 361.015 249.848 362.109 250.142C363.203 250.42 364.134 250.697 364.902 250.975L363.701 254.038C362.999 253.76 362.109 253.474 361.031 253.18C359.969 252.886 358.834 252.592 357.625 252.298C356.433 252.004 355.249 251.743 354.073 251.514C352.897 251.269 351.86 251.081 350.961 250.951L352.088 247.986ZM350.839 254.993C351.672 255.124 352.619 255.295 353.681 255.508C354.743 255.72 355.845 255.957 356.988 256.218C358.148 256.479 359.283 256.749 360.394 257.027C361.505 257.304 362.534 257.582 363.481 257.86C364.445 258.137 365.261 258.407 365.931 258.668L364.583 261.731C363.93 261.453 363.122 261.167 362.158 260.873C361.194 260.595 360.149 260.318 359.022 260.04C357.895 259.746 356.76 259.477 355.616 259.232C354.473 258.97 353.379 258.742 352.333 258.546C351.304 258.35 350.398 258.194 349.614 258.08L350.839 254.993ZM376.637 241.959C377.062 242.253 377.56 242.612 378.132 243.037C378.704 243.462 379.292 243.927 379.896 244.434C380.517 244.924 381.096 245.405 381.635 245.879C382.174 246.353 382.615 246.777 382.958 247.153L380.459 249.701C380.149 249.358 379.741 248.95 379.234 248.476C378.728 248.002 378.181 247.512 377.593 247.006C377.005 246.5 376.425 246.018 375.853 245.561C375.282 245.103 374.775 244.719 374.334 244.409L376.637 241.959ZM373.575 258.276C374.849 258.096 376.049 257.843 377.176 257.517C378.303 257.19 379.349 256.814 380.312 256.39C381.276 255.965 382.158 255.524 382.958 255.067C384.347 254.234 385.621 253.286 386.78 252.225C387.94 251.163 388.953 250.06 389.818 248.917C390.684 247.757 391.37 246.63 391.876 245.536L393.787 248.991C393.167 250.085 392.399 251.179 391.484 252.274C390.586 253.368 389.565 254.413 388.422 255.41C387.279 256.39 386.045 257.272 384.722 258.056C383.889 258.562 382.991 259.044 382.027 259.501C381.064 259.942 380.043 260.334 378.965 260.677C377.903 261.036 376.793 261.314 375.633 261.51L373.575 258.276ZM414.318 240.514C414.531 240.808 414.751 241.159 414.98 241.567C415.225 241.975 415.462 242.384 415.69 242.792C415.919 243.2 416.107 243.56 416.254 243.87L414.294 244.703C414.049 244.197 413.747 243.625 413.387 242.988C413.044 242.335 412.71 241.771 412.383 241.298L414.318 240.514ZM417.209 239.411C417.422 239.705 417.65 240.064 417.895 240.489C418.157 240.897 418.402 241.306 418.63 241.714C418.875 242.106 419.063 242.449 419.194 242.743L417.258 243.576C416.997 243.053 416.687 242.474 416.327 241.837C415.968 241.2 415.617 240.652 415.274 240.195L417.209 239.411ZM416.523 245.904C416.376 246.132 416.229 246.41 416.082 246.737C415.935 247.047 415.813 247.357 415.715 247.668C415.503 248.386 415.2 249.211 414.808 250.142C414.416 251.057 413.943 252.004 413.387 252.984C412.832 253.964 412.179 254.92 411.427 255.851C410.268 257.255 408.904 258.529 407.336 259.673C405.784 260.816 403.857 261.845 401.554 262.76L398.663 260.163C400.329 259.656 401.766 259.093 402.975 258.472C404.184 257.835 405.237 257.149 406.135 256.414C407.034 255.679 407.834 254.903 408.536 254.087C409.092 253.45 409.606 252.731 410.08 251.931C410.57 251.13 410.978 250.33 411.305 249.53C411.648 248.729 411.885 248.027 412.015 247.423H403.759L404.886 244.654C405.098 244.654 405.449 244.654 405.939 244.654C406.429 244.654 406.977 244.654 407.581 244.654C408.185 244.654 408.781 244.654 409.369 244.654C409.974 244.654 410.505 244.654 410.962 244.654C411.419 244.654 411.721 244.654 411.868 244.654C412.26 244.654 412.644 244.63 413.02 244.581C413.412 244.515 413.739 244.442 414 244.36L416.523 245.904ZM408.536 242.033C408.242 242.457 407.957 242.915 407.679 243.405C407.401 243.895 407.189 244.27 407.042 244.532C406.487 245.512 405.801 246.532 404.984 247.594C404.167 248.639 403.244 249.66 402.215 250.657C401.203 251.637 400.108 252.535 398.932 253.352L396.188 251.294C397.266 250.64 398.214 249.962 399.03 249.26C399.847 248.558 400.558 247.864 401.162 247.178C401.766 246.475 402.289 245.806 402.73 245.169C403.171 244.515 403.538 243.927 403.832 243.405C404.028 243.111 404.233 242.719 404.445 242.229C404.674 241.722 404.837 241.265 404.935 240.857L408.536 242.033Z" fill="white"/>
<path d="M236.125 181.577H238.967V202.28H236.125V181.577ZM232.401 186.183H242.201V188.903H232.401V186.183ZM236.272 187.286L237.987 188.021C237.759 188.903 237.481 189.817 237.154 190.765C236.828 191.712 236.468 192.651 236.076 193.582C235.684 194.497 235.268 195.362 234.827 196.179C234.386 196.996 233.928 197.706 233.455 198.311C233.308 197.886 233.095 197.412 232.818 196.89C232.556 196.351 232.311 195.893 232.083 195.518C232.507 195.028 232.924 194.456 233.332 193.803C233.757 193.133 234.157 192.422 234.533 191.671C234.908 190.92 235.243 190.168 235.537 189.417C235.831 188.666 236.076 187.955 236.272 187.286ZM240.486 179.495L242.128 181.896C241.278 182.206 240.356 182.484 239.359 182.729C238.379 182.974 237.375 183.186 236.346 183.366C235.317 183.529 234.32 183.668 233.357 183.782C233.308 183.455 233.202 183.08 233.038 182.655C232.875 182.214 232.72 181.83 232.573 181.504C233.52 181.357 234.467 181.185 235.415 180.989C236.362 180.777 237.277 180.548 238.159 180.303C239.041 180.042 239.817 179.772 240.486 179.495ZM238.894 189.05C239.057 189.197 239.286 189.433 239.58 189.76C239.89 190.087 240.217 190.454 240.56 190.863C240.919 191.255 241.246 191.622 241.54 191.965C241.834 192.292 242.038 192.537 242.152 192.7L240.462 195.003C240.315 194.676 240.119 194.301 239.874 193.876C239.645 193.435 239.392 192.986 239.114 192.529C238.837 192.071 238.567 191.638 238.306 191.23C238.044 190.822 237.816 190.487 237.62 190.226L238.894 189.05ZM249.674 179.25H252.589V202.255H249.674V179.25ZM241.785 195.077L255.015 192.798L255.48 195.567L242.25 197.87L241.785 195.077ZM243.377 182.41L245.288 180.769C245.746 181.095 246.211 181.463 246.685 181.871C247.175 182.279 247.632 182.696 248.057 183.121C248.498 183.545 248.841 183.937 249.086 184.297L247.028 186.134C246.815 185.775 246.505 185.375 246.097 184.934C245.688 184.493 245.247 184.052 244.774 183.611C244.3 183.17 243.835 182.769 243.377 182.41ZM242.471 188.878L244.357 187.188C244.831 187.514 245.329 187.89 245.852 188.315C246.374 188.723 246.856 189.148 247.297 189.589C247.755 190.013 248.122 190.397 248.4 190.74L246.391 192.651C246.146 192.275 245.803 191.867 245.362 191.426C244.921 190.969 244.447 190.52 243.941 190.079C243.434 189.638 242.944 189.237 242.471 188.878ZM261.801 187.653H273.096V190.201H261.801V187.653ZM257.416 193.166H279.343V195.861H257.416V193.166ZM266.848 191.573H269.862V199.144C269.862 199.895 269.756 200.483 269.543 200.908C269.331 201.332 268.931 201.651 268.343 201.863C267.755 202.075 267.069 202.206 266.285 202.255C265.501 202.304 264.586 202.329 263.541 202.329C263.443 201.904 263.271 201.414 263.026 200.859C262.798 200.32 262.569 199.854 262.34 199.462C262.863 199.478 263.394 199.495 263.933 199.511C264.472 199.527 264.945 199.536 265.354 199.536C265.778 199.536 266.072 199.527 266.236 199.511C266.481 199.511 266.644 199.478 266.726 199.413C266.807 199.348 266.848 199.233 266.848 199.07V191.573ZM272.165 187.653H272.875L273.512 187.506L275.35 188.927C274.811 189.531 274.182 190.136 273.463 190.74C272.745 191.344 271.993 191.916 271.209 192.455C270.425 192.978 269.633 193.435 268.833 193.827C268.653 193.566 268.4 193.272 268.073 192.945C267.763 192.602 267.502 192.324 267.289 192.112C267.926 191.785 268.555 191.393 269.176 190.936C269.813 190.479 270.393 190.013 270.915 189.54C271.438 189.05 271.854 188.609 272.165 188.217V187.653ZM257.734 183.17H279.074V189.172H276.183V185.767H260.478V189.172H257.734V183.17ZM274.688 179.446L277.873 180.377C277.318 181.193 276.738 181.994 276.134 182.778C275.529 183.562 274.982 184.223 274.492 184.762L272.067 183.88C272.393 183.455 272.712 182.99 273.022 182.484C273.349 181.977 273.659 181.463 273.953 180.94C274.247 180.401 274.492 179.903 274.688 179.446ZM259.376 180.646L261.875 179.519C262.316 180.009 262.749 180.556 263.173 181.161C263.598 181.749 263.908 182.279 264.104 182.753L261.458 184.003C261.279 183.545 260.985 183.006 260.576 182.386C260.184 181.749 259.784 181.169 259.376 180.646ZM265.525 180.107L268.122 179.152C268.514 179.674 268.89 180.27 269.249 180.94C269.625 181.61 269.894 182.198 270.058 182.704L267.289 183.782C267.159 183.292 266.922 182.704 266.579 182.018C266.252 181.316 265.901 180.679 265.525 180.107Z" fill="white"/>
<path d="M398.332 179.274H408.818V181.797H398.332V179.274ZM399.239 192.43H410.68V195.003H399.239V192.43ZM397.769 197.894H411.709V200.466H397.769V197.894ZM407.985 179.274H408.524L409.063 179.151L411.023 180.009C410.386 181.936 409.488 183.602 408.328 185.007C407.168 186.411 405.813 187.587 404.261 188.535C402.709 189.466 401.011 190.217 399.165 190.789C399.002 190.429 398.757 190.013 398.43 189.539C398.12 189.049 397.826 188.649 397.548 188.339C399.198 187.914 400.717 187.31 402.105 186.526C403.51 185.725 404.718 184.754 405.731 183.61C406.76 182.467 407.511 181.168 407.985 179.715V179.274ZM402.13 181.479C402.979 183.145 404.261 184.574 405.976 185.766C407.707 186.942 409.733 187.783 412.052 188.29C411.758 188.567 411.431 188.943 411.072 189.417C410.729 189.89 410.46 190.307 410.264 190.666C407.797 189.997 405.666 188.959 403.869 187.555C402.089 186.15 400.66 184.402 399.582 182.312L402.13 181.479ZM403.404 189.49H406.295V199.535H403.404V189.49ZM392.403 178.147L394.951 179.102C394.624 179.723 394.281 180.368 393.922 181.038C393.563 181.707 393.212 182.344 392.869 182.949C392.526 183.553 392.199 184.076 391.889 184.517L389.929 183.684C390.223 183.177 390.525 182.606 390.835 181.969C391.145 181.332 391.439 180.678 391.717 180.009C391.995 179.339 392.223 178.718 392.403 178.147ZM395.221 181.062L397.622 182.14C397.034 183.071 396.388 184.051 395.686 185.08C394.984 186.093 394.281 187.073 393.579 188.02C392.877 188.951 392.215 189.768 391.595 190.47L389.88 189.515C390.337 188.959 390.811 188.339 391.301 187.653C391.791 186.95 392.272 186.224 392.746 185.472C393.236 184.705 393.693 183.945 394.118 183.194C394.543 182.426 394.91 181.716 395.221 181.062ZM388.63 183.953L390.051 181.944C390.476 182.32 390.909 182.736 391.35 183.194C391.807 183.635 392.223 184.084 392.599 184.541C392.991 184.982 393.285 185.382 393.481 185.742L391.987 188.02C391.791 187.628 391.505 187.195 391.129 186.722C390.77 186.248 390.37 185.766 389.929 185.276C389.488 184.786 389.055 184.345 388.63 183.953ZM394.51 186.893L396.446 186.085C396.756 186.64 397.058 187.236 397.352 187.873C397.662 188.494 397.924 189.106 398.136 189.711C398.365 190.299 398.52 190.83 398.602 191.303L396.519 192.234C396.437 191.761 396.29 191.222 396.078 190.617C395.882 189.997 395.645 189.36 395.368 188.706C395.09 188.053 394.804 187.449 394.51 186.893ZM388.606 188.927C389.733 188.894 391.08 188.845 392.648 188.78C394.216 188.714 395.809 188.649 397.426 188.584L397.401 190.911C395.882 191.026 394.371 191.132 392.869 191.23C391.382 191.328 390.043 191.418 388.851 191.499L388.606 188.927ZM395.025 192.994L397.083 192.332C397.393 193.035 397.687 193.802 397.965 194.635C398.259 195.452 398.479 196.171 398.626 196.791L396.446 197.575C396.331 196.955 396.135 196.22 395.858 195.37C395.58 194.505 395.302 193.712 395.025 192.994ZM389.684 192.528L392.109 192.969C391.978 194.145 391.782 195.305 391.521 196.448C391.26 197.592 390.958 198.555 390.615 199.339C390.451 199.225 390.231 199.094 389.953 198.947C389.675 198.817 389.39 198.686 389.096 198.555C388.818 198.425 388.573 198.327 388.361 198.261C388.72 197.526 389.006 196.652 389.218 195.64C389.43 194.611 389.586 193.574 389.684 192.528ZM392.428 190.225H395V201.152H392.428V190.225ZM420.431 180.352H435.964V182.875H420.431V180.352ZM423.984 190.397H432.583V192.822H423.984V190.397ZM424.008 194.513H432.657V196.938H424.008V194.513ZM426.654 178.147H429.668V181.454H426.654V178.147ZM431.187 189.368H434.102V201.079H431.187V189.368ZM431.089 181.871L433.833 182.63C433.016 183.986 431.938 185.137 430.599 186.085C429.276 187.016 427.781 187.775 426.115 188.363C424.449 188.951 422.685 189.433 420.823 189.809C420.741 189.596 420.619 189.335 420.456 189.025C420.292 188.698 420.121 188.38 419.941 188.069C419.761 187.759 419.59 187.514 419.427 187.334C421.158 187.089 422.791 186.746 424.327 186.305C425.878 185.848 427.242 185.26 428.418 184.541C429.594 183.806 430.484 182.916 431.089 181.871ZM414.6 180.401L416.193 178.245C416.699 178.441 417.23 178.678 417.785 178.955C418.357 179.233 418.896 179.519 419.402 179.813C419.925 180.107 420.341 180.401 420.652 180.695L418.961 183.096C418.667 182.802 418.275 182.491 417.785 182.165C417.295 181.838 416.764 181.52 416.193 181.209C415.637 180.899 415.106 180.629 414.6 180.401ZM413.179 187.089L414.747 184.86C415.27 185.039 415.817 185.26 416.389 185.521C416.96 185.783 417.507 186.06 418.03 186.354C418.553 186.648 418.977 186.934 419.304 187.212L417.614 189.662C417.32 189.384 416.919 189.09 416.413 188.78C415.907 188.453 415.368 188.143 414.796 187.849C414.241 187.555 413.702 187.302 413.179 187.089ZM413.89 198.972C414.298 198.335 414.755 197.592 415.262 196.742C415.768 195.877 416.282 194.962 416.805 193.998C417.328 193.035 417.818 192.071 418.275 191.107L420.505 192.945C420.096 193.81 419.663 194.701 419.206 195.615C418.765 196.53 418.308 197.428 417.834 198.31C417.377 199.176 416.919 200.009 416.462 200.809L413.89 198.972ZM422.367 189.294H425.16V192.21C425.16 192.847 425.119 193.565 425.037 194.366C424.955 195.15 424.792 195.966 424.547 196.816C424.318 197.665 423.967 198.482 423.494 199.266C423.036 200.066 422.416 200.777 421.632 201.397C421.452 201.25 421.223 201.071 420.946 200.858C420.668 200.662 420.382 200.466 420.088 200.27C419.794 200.074 419.533 199.927 419.304 199.829C419.974 199.274 420.513 198.67 420.921 198.016C421.346 197.347 421.656 196.661 421.852 195.958C422.048 195.256 422.179 194.578 422.244 193.925C422.326 193.255 422.367 192.659 422.367 192.136V189.294ZM424.596 181.65C425.625 182.875 426.752 183.839 427.977 184.541C429.218 185.227 430.55 185.75 431.971 186.109C433.408 186.452 434.935 186.738 436.552 186.967C436.242 187.293 435.931 187.702 435.621 188.192C435.327 188.682 435.107 189.155 434.96 189.613C433.277 189.286 431.677 188.878 430.158 188.388C428.639 187.881 427.209 187.179 425.87 186.281C424.547 185.382 423.322 184.174 422.195 182.655L424.596 181.65Z" fill="white"/>
</svg>
