<?xml version="1.0" encoding="UTF-8"?>
<svg id="_レイヤー_2" data-name="レイヤー_2" xmlns="http://www.w3.org/2000/svg" viewBox="0 0 78.8 78.8">
  <defs>
    <style>
      .cls-1 {
        fill: #eeedee;
        stroke: #00573c;
        stroke-miterlimit: 10;
        stroke-width: 2px;
      }

      .cls-2 {
        fill: #00583c;
      }

      .cls-3 {
        fill: #fff;
      }
    </style>
  </defs>
  <g id="_レイヤー_1-2" data-name="レイヤー_1">
    <circle class="cls-1" cx="39.4" cy="39.4" r="38.4"/>
    <g>
      <rect class="cls-3" x="16.34" y="24.93" width="46.38" height="29.02" rx="2.04" ry="2.04"/>
      <path class="cls-2" d="M63.19,27.7c0-2.29-1.11-3.41-3.4-3.41H18.89c-2.16,0-3.31,1.15-3.31,3.31v23.59c0,2.17,1.13,3.3,3.3,3.3h20.45c6.82,0,13.64-.05,20.45.02,2.09.02,3.46-1.33,3.44-3.41-.06-7.8-.03-15.6-.03-23.4ZM61.89,51.27c0,1.33-.57,1.91-1.9,1.91H18.78c-1.33,0-1.9-.58-1.9-1.92v-14.73h44.97c.02.24.04.47.04.69v14.05ZM61.87,31.16s-.04.07-.07.14H16.91c0-1.51-.04-2.98.02-4.45.03-.66.72-1.18,1.42-1.24.21-.02.43-.01.65-.01h40.78c1.6,0,2.11.51,2.11,2.1,0,1.15-.01,2.31-.02,3.46Z"/>
      <path class="cls-2" d="M22.41,27.53c-.01.32,0,.65,0,.97q0,1.54-1.46,1.06c-.74-.25-1.48-.49-2.22-.76-.14-.05-.25-.2-.38-.3.12-.1.23-.26.37-.31,1.04-.37,2.09-.7,3.14-1.08.44-.15.55.02.55.42Z"/>
    </g>
  </g>
</svg>