<?xml version="1.0" encoding="UTF-8"?>
<svg id="_レイヤー_2" data-name="レイヤー_2" xmlns="http://www.w3.org/2000/svg" xmlns:xlink="http://www.w3.org/1999/xlink" viewBox="0 0 78.8 78.8">
  <defs>
    <style>
      .cls-1 {
        fill: none;
      }

      .cls-2 {
        fill: #eeedee;
        stroke: #00573c;
        stroke-miterlimit: 10;
        stroke-width: 2px;
      }

      .cls-3 {
        fill: #231815;
      }

      .cls-4 {
        fill: #fff;
      }

      .cls-5 {
        fill: #00573c;
      }

      .cls-6 {
        clip-path: url(#clippath);
      }
    </style>
    <clipPath id="clippath">
      <path class="cls-1" d="M44.78,49.88c0-7.07,5.75-12.82,12.82-12.82.1,0,.2,0,.3,0v-10.08H20.73v28.17c0,1.42,1.15,2.57,2.57,2.57h24.16c-1.68-2.17-2.68-4.89-2.68-7.84Z"/>
    </clipPath>
  </defs>
  <g id="_レイヤー_1-2" data-name="レイヤー_1">
    <circle class="cls-2" cx="39.4" cy="39.4" r="38.4"/>
    <g>
      <g>
        <g class="cls-6">
          <rect class="cls-4" x="22.49" y="28.27" width="34.05" height="28.33"/>
          <path class="cls-5" d="M55.37,29.52v24.4c0,.7-.57,1.27-1.27,1.27h-29.56c-.7,0-1.27-.57-1.27-1.27v-24.4h32.11M57.9,26.99H20.73v28.17c0,1.42,1.15,2.57,2.57,2.57h32.03c1.42,0,2.57-1.15,2.57-2.57v-28.17h0Z"/>
          <g>
            <rect class="cls-5" x="34.25" y="34.25" width="3.17" height="3.17"/>
            <rect class="cls-5" x="41.22" y="34.25" width="3.17" height="3.17"/>
            <rect class="cls-5" x="48.19" y="34.25" width="3.17" height="3.17"/>
            <rect class="cls-5" x="27.28" y="41.22" width="3.17" height="3.17"/>
            <rect class="cls-5" x="34.25" y="41.22" width="3.17" height="3.17"/>
            <rect class="cls-5" x="41.22" y="41.22" width="3.17" height="3.17"/>
            <rect class="cls-5" x="48.19" y="41.22" width="3.17" height="3.17"/>
            <rect class="cls-5" x="27.28" y="48.19" width="3.17" height="3.17"/>
            <rect class="cls-5" x="34.25" y="48.19" width="3.17" height="3.17"/>
            <rect class="cls-5" x="41.22" y="48.19" width="3.17" height="3.17"/>
            <rect class="cls-3" x="48.19" y="48.19" width="3.17" height="3.17"/>
          </g>
        </g>
        <path class="cls-5" d="M55.33,20.55h-3.36v2.32c0,1.86-1.51,3.37-3.37,3.37s-3.37-1.51-3.37-3.37v-2.32h-11.85v2.32c0,1.86-1.51,3.37-3.37,3.37s-3.37-1.51-3.37-3.37v-2.32h-3.36c-1.42,0-2.57,1.15-2.57,2.57v6.72h37.17v-6.72c0-1.42-1.15-2.57-2.57-2.57Z"/>
        <g>
          <g>
            <path class="cls-5" d="M30.02,24.26c-.8,0-1.45-.65-1.45-1.45v-4.65c0-.8.65-1.45,1.45-1.45s1.45.65,1.45,1.45v4.65c0,.8-.65,1.45-1.45,1.45Z"/>
            <path class="cls-5" d="M48.61,24.26c-.8,0-1.45-.65-1.45-1.45v-4.65c0-.8.65-1.45,1.45-1.45s1.45.65,1.45,1.45v4.65c0,.8-.65,1.45-1.45,1.45Z"/>
          </g>
          <g>
            <path class="cls-5" d="M30.02,24.26c-.8,0-1.45-.65-1.45-1.45v-4.65c0-.8.65-1.45,1.45-1.45s1.45.65,1.45,1.45v4.65c0,.8-.65,1.45-1.45,1.45Z"/>
            <path class="cls-5" d="M48.61,24.26c-.8,0-1.45-.65-1.45-1.45v-4.65c0-.8.65-1.45,1.45-1.45s1.45.65,1.45,1.45v4.65c0,.8-.65,1.45-1.45,1.45Z"/>
          </g>
        </g>
      </g>
      <g>
        <g>
          <g>
            <path class="cls-5" d="M57.6,59.91c-5.53,0-10.03-4.5-10.03-10.03s4.5-10.03,10.03-10.03,10.03,4.5,10.03,10.03-4.5,10.03-10.03,10.03ZM57.6,41.99c-4.35,0-7.9,3.54-7.9,7.9s3.54,7.9,7.9,7.9,7.9-3.54,7.9-7.9-3.54-7.9-7.9-7.9Z"/>
            <circle class="cls-5" cx="57.6" cy="49.88" r="7.9"/>
          </g>
          <circle class="cls-4" cx="57.6" cy="49.88" r="7.9"/>
        </g>
        <g>
          <g>
            <path class="cls-5" d="M57.6,50.95c-.59,0-1.07-.48-1.07-1.07v-5.26c0-.59.48-1.07,1.07-1.07s1.07.48,1.07,1.07v5.26c0,.59-.48,1.07-1.07,1.07Z"/>
            <path class="cls-5" d="M53.66,53.23c-.37,0-.73-.19-.92-.53-.29-.51-.12-1.16.39-1.46l3.94-2.28c.51-.29,1.16-.12,1.46.39.29.51.12,1.16-.39,1.46l-3.94,2.28c-.17.1-.35.14-.53.14Z"/>
          </g>
          <g>
            <path class="cls-5" d="M57.6,50.95c-.59,0-1.07-.48-1.07-1.07v-5.26c0-.59.48-1.07,1.07-1.07s1.07.48,1.07,1.07v5.26c0,.59-.48,1.07-1.07,1.07Z"/>
            <path class="cls-5" d="M53.66,53.23c-.37,0-.73-.19-.92-.53-.29-.51-.12-1.16.39-1.46l3.94-2.28c.51-.29,1.16-.12,1.46.39.29.51.12,1.16-.39,1.46l-3.94,2.28c-.17.1-.35.14-.53.14Z"/>
          </g>
        </g>
      </g>
    </g>
  </g>
</svg>