<?xml version="1.0" encoding="UTF-8"?>
<svg id="_レイヤー_2" data-name="レイヤー_2" xmlns="http://www.w3.org/2000/svg" viewBox="0 0 78.8 78.8">
  <defs>
    <style>
      .cls-1 {
        fill: #eeedee;
        stroke: #00573c;
        stroke-miterlimit: 10;
        stroke-width: 2px;
      }

      .cls-2 {
        fill: #231815;
      }

      .cls-3 {
        fill: #00583c;
      }

      .cls-4 {
        fill: #fff;
      }
    </style>
  </defs>
  <g id="_レイヤー_1-2" data-name="レイヤー_1">
    <g>
      <circle class="cls-1" cx="39.4" cy="39.4" r="38.4"/>
      <rect class="cls-3" x="11.32" y="32.88" width="55.29" height="13.56" rx="2" ry="2"/>
      <g>
        <polygon class="cls-4" points="54.08 56.49 41.05 42.48 42.81 61.53 46.62 58.58 49.01 63.94 51.73 62.72 49.34 57.37 54.08 56.49"/>
        <path class="cls-2" d="M49.01,64.32c-.15,0-.29-.08-.35-.23l-2.19-4.91-3.42,2.65c-.11.09-.26.1-.39.05-.13-.06-.22-.18-.23-.32l-1.76-19.05c-.01-.16.08-.32.23-.39.15-.07.33-.03.44.09l13.02,14.02c.1.1.13.25.08.38-.04.13-.16.23-.3.26l-4.26.78,2.2,4.91c.04.09.04.2,0,.29-.04.1-.11.17-.2.21l-2.72,1.22c-.05.02-.1.03-.16.03ZM46.62,58.2s.06,0,.09.01c.11.03.21.11.26.22l2.24,5.01,2.02-.9-2.24-5.01c-.05-.11-.04-.23.01-.34.06-.1.15-.18.27-.2l4.05-.75-11.78-12.68,1.59,17.23,3.26-2.52c.07-.05.15-.08.24-.08Z"/>
      </g>
    </g>
  </g>
</svg>