<?xml version="1.0" encoding="UTF-8"?>
<svg id="_レイヤー_2" data-name="レイヤー_2" xmlns="http://www.w3.org/2000/svg" viewBox="0 0 78.8 78.8">
  <defs>
    <style>
      .cls-1 {
        fill: #eeedee;
        stroke: #00573c;
        stroke-miterlimit: 10;
        stroke-width: 2px;
      }

      .cls-2 {
        fill: #00583c;
      }

      .cls-3 {
        fill: #fff;
      }
    </style>
  </defs>
  <g id="_レイヤー_1-2" data-name="レイヤー_1">
    <circle class="cls-1" cx="39.4" cy="39.4" r="38.4"/>
    <rect class="cls-3" x="23.77" y="19.67" width="33.14" height="21.08"/>
    <polygon class="cls-3" points="62.55 52.47 18.43 52.47 24.72 39.66 55.7 39.66 62.55 52.47"/>
    <rect class="cls-3" x="17.93" y="51.99" width="44.62" height="3.26"/>
    <path class="cls-2" d="M19.21,54.53v-1.73l5.2-10.39h32.04l5.2,10.39v1.73M45.6,48.13c-.13-.3-.43-.49-.75-.49h-8.52c-.33,0-.62.19-.75.49l-1.42,3.17c-.11.26-.09.55.06.79.15.24.41.38.69.38h11.35c.28,0,.54-.14.69-.38.15-.24.18-.53.06-.79l-1.42-3.17h0ZM44.31,49.3l.68,1.52h-8.8l.68-1.52h7.44ZM24.72,21.47v-1.1h31.41v1.1h-31.41ZM63.21,52.23l-5.43-10.85v-21.85c0-.45-.37-.82-.82-.82H23.89c-.46,0-.83.37-.83.82v21.85l-5.42,10.85c-.05.12-.09.24-.09.37v2.76c0,.46.37.83.83.83h44.09c.45,0,.82-.37.82-.83v-2.76c0-.13-.03-.25-.08-.37ZM56.13,40.76h-31.41v-1.1h31.41v1.1ZM56.13,38h-31.41v-14.88h31.41v14.88Z"/>
  </g>
</svg>