<?xml version="1.0" encoding="UTF-8"?>
<svg id="_レイヤー_2" data-name="レイヤー_2" xmlns="http://www.w3.org/2000/svg" viewBox="0 0 78.8 78.8">
  <defs>
    <style>
      .cls-1 {
        fill: #eeedee;
        stroke: #00573c;
      }

      .cls-1, .cls-2 {
        stroke-miterlimit: 10;
        stroke-width: 2px;
      }

      .cls-2 {
        fill: #fff;
        stroke: #00583c;
      }
    </style>
  </defs>
  <g id="_レイヤー_1-2" data-name="レイヤー_1">
    <circle class="cls-1" cx="39.4" cy="39.4" r="38.4"/>
    <path class="cls-2" d="M39.41,15.48c4.66.09,9.1,1.05,13.26,3.17,3.97,2.02,7.25,4.83,9.49,8.73,1.22,2.12,1.97,4.4,2.22,6.86.42,4.27-.71,8.1-3.16,11.58-1.87,2.66-4.17,4.91-6.65,6.99-3.78,3.15-7.8,5.96-12.02,8.49-1.08.65-2.21,1.21-3.34,1.77-.36.17-.79.24-1.19.26-.6.04-.96-.3-.93-.91.03-.64.17-1.28.24-1.93.1-.8.21-1.61.26-2.41.05-.81-.32-1.43-1.11-1.68-.76-.24-1.54-.42-2.32-.56-5.41-.96-10.23-3.12-14.19-7-2.68-2.63-4.55-5.76-5.3-9.47-.92-4.58-.07-8.86,2.44-12.79,2.06-3.23,4.86-5.65,8.18-7.49,2.99-1.66,6.19-2.71,9.57-3.19,1.5-.21,3.03-.28,4.54-.41Z"/>
  </g>
</svg>