<svg width="93" height="72" viewBox="0 0 93 72" fill="none" xmlns="http://www.w3.org/2000/svg">
<g clip-path="url(#clip0_6946_24585)">
<path d="M57.4334 46.8627H51.1543C50.3593 46.8627 49.7148 47.5071 49.7148 48.3022V54.1882C49.7148 54.9832 50.3593 55.6277 51.1543 55.6277H57.4334C58.2284 55.6277 58.8728 54.9832 58.8728 54.1882V48.3022C58.8728 47.5071 58.2284 46.8627 57.4334 46.8627Z" fill="#C4C4C4"/>
<g clip-path="url(#clip1_6946_24585)">
<g filter="url(#filter0_d_6946_24585)">
<rect x="2.84375" y="2.8421" width="64.4211" height="64.4211" rx="7.57895" fill="#F9F9F9"/>
</g>
<path d="M2.84375 10.421C2.84375 6.23531 6.23696 2.8421 10.4227 2.8421H59.6858C63.8716 2.8421 67.2648 6.23531 67.2648 10.4211V19.8947H2.84375V10.421Z" fill="#3B9377"/>
<circle cx="16.5732" cy="9.4179" r="3.35442" fill="white"/>
<circle cx="53.5654" cy="9.41821" r="3.35442" fill="white"/>
<path d="M16.5765 -0.000543851C17.7227 -0.000543851 18.6608 1.15741 18.6608 2.5722V7.84828C18.6608 9.26307 17.7227 10.421 16.5765 10.421C15.4303 10.421 14.4922 9.26307 14.4922 7.84828V2.5722C14.4922 1.15741 15.4303 -0.000543851 16.5765 -0.000543851Z" fill="#6B7773"/>
<path d="M53.5687 -0.000238675C54.7149 -0.000238675 55.653 1.15771 55.653 2.5725V7.84858C55.653 9.26337 54.7149 10.4213 53.5687 10.4213C52.4225 10.4213 51.4844 9.26337 51.4844 7.84858V2.5725C51.4844 1.15771 52.4225 -0.000238675 53.5687 -0.000238675Z" fill="#6B7773"/>
</g>
<rect x="30.3164" y="26.4504" width="11.3684" height="9.47368" rx="2.6445" fill="#D2D2D2"/>
<rect x="30.3164" y="39.7136" width="11.3684" height="9.47368" rx="2.6445" fill="#FCAF17"/>
<path d="M30.3164 54.7498C30.3164 53.2893 31.5004 52.1053 32.9609 52.1053H39.0403C40.5008 52.1053 41.6848 53.2893 41.6848 54.7498V58.9345C41.6848 60.395 40.5008 61.579 39.0403 61.579H32.9609C31.5004 61.579 30.3164 60.395 30.3164 58.9345V54.7498Z" fill="#D2D2D2"/>
<rect x="11.3672" y="26.4504" width="11.3684" height="9.47368" rx="2.6445" fill="#D2D2D2"/>
<rect x="11.3672" y="39.7136" width="11.3684" height="9.47368" rx="2.6445" fill="#D2D2D2"/>
<rect x="11.3672" y="52.1053" width="11.3684" height="9.47368" rx="2.6445" fill="#D2D2D2"/>
<rect x="49.2617" y="26.4504" width="11.3684" height="9.47368" rx="2.6445" fill="#D2D2D2"/>
<rect x="49.2617" y="39.7136" width="11.3684" height="9.47368" rx="2.6445" fill="#D2D2D2"/>
<rect x="49.2617" y="52.1053" width="11.3684" height="9.47368" rx="2.6445" fill="#D2D2D2"/>
<mask id="path-17-outside-1_6946_24585" maskUnits="userSpaceOnUse" x="43.0039" y="23" width="50" height="45" fill="black">
<rect fill="white" x="43.0039" y="23" width="50" height="45"/>
<path d="M70.2822 25C81.4831 25.0001 90.5635 34.0803 90.5635 45.2812C90.5635 56.4822 81.4831 65.5624 70.2822 65.5625C60.2216 65.5625 51.8733 58.2368 50.2773 48.6289C50.2304 48.6085 50.1831 48.5852 50.1377 48.5566L46.4717 46.2529C45.8201 45.8434 45.856 44.8823 46.5361 44.5225L50.1777 42.5977C51.4908 32.6652 59.991 25 70.2822 25Z"/>
</mask>
<path d="M70.2822 25C81.4831 25.0001 90.5635 34.0803 90.5635 45.2812C90.5635 56.4822 81.4831 65.5624 70.2822 65.5625C60.2216 65.5625 51.8733 58.2368 50.2773 48.6289C50.2304 48.6085 50.1831 48.5852 50.1377 48.5566L46.4717 46.2529C45.8201 45.8434 45.856 44.8823 46.5361 44.5225L50.1777 42.5977C51.4908 32.6652 59.991 25 70.2822 25Z" fill="white"/>
<path d="M70.2822 25L70.2823 23H70.2822V25ZM70.2822 65.5625L70.2822 67.5625L70.2823 67.5625L70.2822 65.5625ZM50.2773 48.6289L52.2503 48.3012L52.0719 47.2272L51.0731 46.794L50.2773 48.6289ZM50.1377 48.5566L51.2019 46.8633L51.2018 46.8632L50.1377 48.5566ZM46.4717 46.2529L45.4073 47.9462L45.4075 47.9463L46.4717 46.2529ZM46.5361 44.5225L45.6015 42.7543L45.6009 42.7546L46.5361 44.5225ZM50.1777 42.5977L51.1123 44.3659L52.0252 43.8834L52.1605 42.8598L50.1777 42.5977ZM70.2822 25L70.2822 27C80.3786 27.0001 88.5635 35.1849 88.5635 45.2812H90.5635H92.5635C92.5635 32.9757 82.5877 23.0001 70.2823 23L70.2822 25ZM90.5635 45.2812H88.5635C88.5635 55.3776 80.3786 63.5624 70.2822 63.5625L70.2822 65.5625L70.2823 67.5625C82.5877 67.5624 92.5635 57.5868 92.5635 45.2812H90.5635ZM70.2822 65.5625V63.5625C61.2159 63.5625 53.6886 56.9603 52.2503 48.3012L50.2773 48.6289L48.3044 48.9566C50.0579 59.5134 59.2273 67.5625 70.2822 67.5625V65.5625ZM50.2773 48.6289L51.0731 46.794C51.0866 46.7999 51.136 46.8219 51.2019 46.8633L50.1377 48.5566L49.0735 50.25C49.2302 50.3485 49.3742 50.4172 49.4816 50.4638L50.2773 48.6289ZM50.1377 48.5566L51.2018 46.8632L47.5358 44.5595L46.4717 46.2529L45.4075 47.9463L49.0736 50.25L50.1377 48.5566ZM46.4717 46.2529L47.536 44.5597C48.1874 44.9691 48.1518 45.9303 47.4714 46.2903L46.5361 44.5225L45.6009 42.7546C43.5602 43.8342 43.4528 46.7177 45.4073 47.9462L46.4717 46.2529ZM46.5361 44.5225L47.4707 46.2907L51.1123 44.3659L50.1777 42.5977L49.2431 40.8295L45.6015 42.7543L46.5361 44.5225ZM50.1777 42.5977L52.1605 42.8598C53.3438 33.9086 61.0076 27 70.2822 27V25V23C58.9745 23 49.6378 31.4217 48.195 42.3355L50.1777 42.5977Z" fill="#55C19F" mask="url(#path-17-outside-1_6946_24585)"/>
<path d="M72.7516 34.5703H67.3398V38.0752H72.7516V34.5703Z" fill="#D9E8E7"/>
<path d="M72.2164 33.1619H67.8772C67.0993 33.1619 66.4688 33.7925 66.4688 34.5703C66.4688 35.3482 67.0993 35.9788 67.8772 35.9788H72.2164C72.9942 35.9788 73.6248 35.3482 73.6248 34.5703C73.6248 33.7925 72.9942 33.1619 72.2164 33.1619Z" fill="#B7BCBB"/>
<path d="M73.0066 38.227C71.3543 35.3668 68.6512 35.3668 66.9989 38.227L62.7031 45.6648H77.297L73.0012 38.227H73.0066Z" fill="#D9E8E7"/>
<path d="M62.7112 56.0548H77.2888C80.5933 56.0548 81.9476 53.7146 80.2953 50.8489L77.2996 45.6647H62.7004L59.7047 50.8489C58.0524 53.7092 59.4067 56.0548 62.7112 56.0548Z" fill="#5CCCA7"/>
<path d="M65.2252 53.2974C66.2125 53.2974 67.0128 52.497 67.0128 51.5097C67.0128 50.5224 66.2125 49.722 65.2252 49.722C64.2379 49.722 63.4375 50.5224 63.4375 51.5097C63.4375 52.497 64.2379 53.2974 65.2252 53.2974Z" fill="#F4F5F7"/>
<path d="M68.3911 49.5219C68.9955 49.5219 69.4854 49.0319 69.4854 48.4276C69.4854 47.8232 68.9955 47.3333 68.3911 47.3333C67.7868 47.3333 67.2969 47.8232 67.2969 48.4276C67.2969 49.0319 67.7868 49.5219 68.3911 49.5219Z" fill="#F4F5F7"/>
</g>
<defs>
<filter id="filter0_d_6946_24585" x="2.84375" y="2.8421" width="64.4219" height="68.2106" filterUnits="userSpaceOnUse" color-interpolation-filters="sRGB">
<feFlood flood-opacity="0" result="BackgroundImageFix"/>
<feColorMatrix in="SourceAlpha" type="matrix" values="0 0 0 0 0 0 0 0 0 0 0 0 0 0 0 0 0 0 127 0" result="hardAlpha"/>
<feOffset dy="3.78947"/>
<feComposite in2="hardAlpha" operator="out"/>
<feColorMatrix type="matrix" values="0 0 0 0 0 0 0 0 0 0 0 0 0 0 0 0 0 0 0.25 0"/>
<feBlend mode="normal" in2="BackgroundImageFix" result="effect1_dropShadow_6946_24585"/>
<feBlend mode="normal" in="SourceGraphic" in2="effect1_dropShadow_6946_24585" result="shape"/>
</filter>
<clipPath id="clip0_6946_24585">
<rect width="93" height="72" fill="white"/>
</clipPath>
<clipPath id="clip1_6946_24585">
<rect width="72" height="72" fill="white"/>
</clipPath>
</defs>
</svg>
